<svg xmlns="http://www.w3.org/2000/svg" version="1.1" xmlns:xlink="http://www.w3.org/1999/xlink" xmlns:svgjs="http://svgjs.com/svgjs" width="512" height="512" x="0" y="0" viewBox="0 0 512 512" style="enable-background:new 0 0 512 512" xml:space="preserve" class=""><g>
<path xmlns="http://www.w3.org/2000/svg" style="" d="M256,0C115.3,0,0,115.3,0,256s115.3,256,256,256s256-115.3,256-256S396.7,0,256,0z" fill="#ff3636" data-original="#ff3636" class=""></path>
<path xmlns="http://www.w3.org/2000/svg" style="" d="M512,256c0,140.7-115.3,256-256,256V0C396.7,0,512,115.3,512,256z" fill="#f40000" data-original="#f40000" class=""></path>
<polygon xmlns="http://www.w3.org/2000/svg" style="" points="298.299,256 383.2,340.901 340.901,383.2 256,298.299 171.099,383.2 128.8,340.901   213.701,256 128.8,171.099 171.099,128.8 256,213.701 340.901,128.8 383.2,171.099 " fill="#e7e7e7" data-original="#e7e7e7"></polygon>
<polygon xmlns="http://www.w3.org/2000/svg" style="" points="298.299,256 383.2,340.901 340.901,383.2 256,298.299 256,213.701 340.901,128.8   383.2,171.099 " fill="#d3d3d8" data-original="#d3d3d8"></polygon>
<g xmlns="http://www.w3.org/2000/svg">
</g>
<g xmlns="http://www.w3.org/2000/svg">
</g>
<g xmlns="http://www.w3.org/2000/svg">
</g>
<g xmlns="http://www.w3.org/2000/svg">
</g>
<g xmlns="http://www.w3.org/2000/svg">
</g>
<g xmlns="http://www.w3.org/2000/svg">
</g>
<g xmlns="http://www.w3.org/2000/svg">
</g>
<g xmlns="http://www.w3.org/2000/svg">
</g>
<g xmlns="http://www.w3.org/2000/svg">
</g>
<g xmlns="http://www.w3.org/2000/svg">
</g>
<g xmlns="http://www.w3.org/2000/svg">
</g>
<g xmlns="http://www.w3.org/2000/svg">
</g>
<g xmlns="http://www.w3.org/2000/svg">
</g>
<g xmlns="http://www.w3.org/2000/svg">
</g>
<g xmlns="http://www.w3.org/2000/svg">
</g>
</g></svg>