<svg xmlns="http://www.w3.org/2000/svg" version="1.1" xmlns:xlink="http://www.w3.org/1999/xlink" xmlns:svgjs="http://svgjs.com/svgjs" width="512" height="512" x="0" y="0" viewBox="0 0 479.553 479.553" style="enable-background:new 0 0 512 512" xml:space="preserve" class=""><g><path d="M223.55 315.73a8 8 0 0 0 0 16c13.255 0 24 10.745 24 24a8 8 0 0 0 16 0c-.026-22.081-17.919-39.974-40-40z" fill="#1f21dd" data-original="#000000" class=""></path><path d="m477.213 102.248-.006-.006-96.169-96.168a8.232 8.232 0 0 0-11.312 0L324.47 51.33a8 8 0 0 0 0 11.312l5.656 5.656-3.864 3.872a91.199 91.199 0 0 0-48 25.344l-24.568 24.616-13.768-13.768a84.702 84.702 0 0 0-60.288-24.968h-21.256l-8.968-8.968 5.656-5.656a8 8 0 0 0 0-11.312l-45.256-45.28a8 8 0 0 0-11.312 0l-96.16 96.16a8 8 0 0 0 0 11.312l45.248 45.256a8 8 0 0 0 11.312 0l5.656-5.656 3.872 3.872a91.34 91.34 0 0 0 25.344 48l57.776 57.744v38.864a84.646 84.646 0 0 0 24.976 60.28l15.024 15.032v12.688h-8a8 8 0 0 0-8 8v64a8 8 0 0 0 8 8h136a8 8 0 0 0 8-8v-64a8 8 0 0 0-8-8h-8v-5.472a91.352 91.352 0 0 0 16-51.84v-48.4a23.482 23.482 0 0 0 13.8-6.672l39.688-39.688a85.81 85.81 0 0 0 24.976-60.28V162.13l8.968-8.976 5.656 5.664a8 8 0 0 0 11.312 0l45.256-45.256a8 8 0 0 0 .007-11.314zM58.902 142.282l-5.656 5.656-33.936-33.944 84.848-84.848 33.944 33.944-5.648 5.648-73.552 73.544zm46.184 57.496a75.45 75.45 0 0 1-21.304-41.784 7.998 7.998 0 0 0-2.248-4.4l-5.656-5.656 31.112-31.112 31.112-31.112 11.312 11.312a8 8 0 0 0 5.656 2.344h24.568a68.8 68.8 0 0 1 48.976 20.28l13.768 13.776-11.32 11.312-13.768-13.768a8.01 8.01 0 0 0-11.328-.016 8.01 8.01 0 0 0-.016 11.328l13.768 13.768-31.136 31.136a23.658 23.658 0 0 0-6.96 16.936 24.13 24.13 0 0 0 14.584 22 23.295 23.295 0 0 0-2.752 16.8l-24.568-24.568a8 8 0 1 0-11.312 11.312l31.32 31.32a7.791 7.791 0 0 1 2.28 5.6 8.08 8.08 0 0 1-8.048 8 6.871 6.871 0 0 1-5.552-2.272l-72.488-72.536zM311.55 459.73h-120v-48h120v48zm0-121.312a75.448 75.448 0 0 1-14.48 44.616 8 8 0 0 0-1.52 4.696v8h-88v-16a8 8 0 0 0-2.344-5.656l-17.368-17.376a68.8 68.8 0 0 1-20.288-48.968v-23.088a23.854 23.854 0 0 0 15.552 5.928h.128c13.228-.066 23.934-10.772 24-24a23.605 23.605 0 0 0-1.288-7.424 23.674 23.674 0 0 0 9.8 2.72c.661 12.208 10.394 21.969 22.6 22.664.697 12.69 11.139 22.653 23.848 22.752h.088a23.619 23.619 0 0 0 16.848-6.968l23.744-23.784a24.173 24.173 0 0 0 8.68 9.912v51.976zm80.8-185.264a8 8 0 0 0-2.344 5.656v24.568a69.735 69.735 0 0 1-20.288 48.968l-39.688 39.688a7.77 7.77 0 0 1-5.528 2.28 8.08 8.08 0 0 1-8-8 7.791 7.791 0 0 1 2.272-5.6l.048-.048 39.648-39.64a8 8 0 0 0-11.312-11.312l-28.28 28.28-11.36 11.36-39.64 39.64a7.779 7.779 0 0 1-5.536 2.28 8.09 8.09 0 0 1-8-8 7.8 7.8 0 0 1 2.288-5.6l51-51a8 8 0 0 0-11.312-11.312l-51 51a7.77 7.77 0 0 1-5.528 2.28 8.096 8.096 0 0 1-8-8 7.762 7.762 0 0 1 2.28-5.6l51.008-51a8.001 8.001 0 0 0-.004-11.316 8.001 8.001 0 0 0-11.316.004l-51.2 51a7.726 7.726 0 0 1-5.52 2.272h-.048a8.08 8.08 0 0 1-8-8 7.855 7.855 0 0 1 2.28-5.552l51-51.008a8.007 8.007 0 0 0-11.336-11.312l-34.464 34.464-5.208 5.216a7.8 7.8 0 0 1-5.528 2.28 8.08 8.08 0 0 1-8-8 7.758 7.758 0 0 1 2.272-5.6l89.68-89.672a75.472 75.472 0 0 1 41.776-21.312 7.998 7.998 0 0 0 4.4-2.248l5.656-5.656 62.232 62.232-11.4 11.32zm33.936-11.312-84.848-84.856 33.944-33.944 84.856 84.856-33.952 33.944z" fill="#1f21dd" data-original="#000000" class=""></path></g></svg>