<svg xmlns="http://www.w3.org/2000/svg" version="1.1" xmlns:xlink="http://www.w3.org/1999/xlink" xmlns:svgjs="http://svgjs.com/svgjs" width="512" height="512" x="0" y="0" viewBox="0 0 64 64" style="enable-background:new 0 0 512 512" xml:space="preserve" class=""><g><path xmlns="http://www.w3.org/2000/svg" d="m43 8a26.63 26.63 0 0 1 -11.211 10.606l-.789.394h10l3.47-1.735a17.427 17.427 0 0 0 4.53-3.265z" fill="#8c78e8" data-original="#f4b2b0" class=""></path><path xmlns="http://www.w3.org/2000/svg" d="m25 2h-10a14.485 14.485 0 0 0 4.243 10.243l.757.757h10l-.757-.757a14.485 14.485 0 0 1 -4.243-10.243z" fill="#8c78e8" data-original="#f4b2b0" class=""></path><rect xmlns="http://www.w3.org/2000/svg" fill="#8c78e8" height="4" rx="2" width="38" x="13" y="19" data-original="#f4b2b0" class=""></rect><path xmlns="http://www.w3.org/2000/svg" d="m45.355 57.383.107-1.383h-26.924l.107 1.383a5 5 0 0 0 4.985 4.617h16.74a5 5 0 0 0 4.985-4.617z" fill="#8c78e8" data-original="#f4b2b0" class=""></path><rect xmlns="http://www.w3.org/2000/svg" fill="#8c78e8" height="23" rx="2" width="4" x="22" y="29" data-original="#f4b2b0" class=""></rect><rect xmlns="http://www.w3.org/2000/svg" fill="#8c78e8" height="23" rx="2" width="4" x="30" y="29" data-original="#f4b2b0" class=""></rect><rect xmlns="http://www.w3.org/2000/svg" fill="#8c78e8" height="23" rx="2" width="4" x="38" y="29" data-original="#f4b2b0" class=""></rect><g xmlns="http://www.w3.org/2000/svg" fill="#b3404a"><path d="m49 18h-3.793a18.384 18.384 0 0 0 4.5-3.293 1 1 0 0 0 0-1.414l-6-6a1 1 0 0 0 -1.575.211 25.553 25.553 0 0 1 -10.79 10.207l-.578.289h-15.764a3 3 0 0 0 0 6h.074l2.574 33.46a6.028 6.028 0 0 0 5.982 5.54h16.74a6.028 6.028 0 0 0 5.982-5.54l2.574-33.46h.074a3 3 0 0 0 0-6zm-5.8-8.389 4.368 4.368a16.4 16.4 0 0 1 -3.541 2.392l-3.263 1.629h-5.924a27.487 27.487 0 0 0 8.36-8.389zm-2.83 51.389h-16.74a4.018 4.018 0 0 1 -3.988-3.693l-.023-.307h24.762l-.023.307a4.018 4.018 0 0 1 -3.988 3.693zm4.165-6h-25.07l-2.385-31h29.84zm4.465-33h-34a1 1 0 0 1 0-2h34a1 1 0 0 1 0 2z" fill="#816ae7" data-original="#b3404a" class=""></path><path d="m24 53a3 3 0 0 0 3-3v-19a3 3 0 0 0 -6 0v19a3 3 0 0 0 3 3zm-1-22a1 1 0 0 1 2 0v19a1 1 0 0 1 -2 0z" fill="#816ae7" data-original="#b3404a" class=""></path><path d="m32 53a3 3 0 0 0 3-3v-19a3 3 0 0 0 -6 0v19a3 3 0 0 0 3 3zm-1-22a1 1 0 0 1 2 0v19a1 1 0 0 1 -2 0z" fill="#816ae7" data-original="#b3404a" class=""></path><path d="m40 53a3 3 0 0 0 3-3v-19a3 3 0 0 0 -6 0v19a3 3 0 0 0 3 3zm-1-22a1 1 0 0 1 2 0v19a1 1 0 0 1 -2 0z" fill="#816ae7" data-original="#b3404a" class=""></path><path d="m19.293 13.707a1 1 0 0 0 .707.293h10a1 1 0 0 0 .707-1.707l-.757-.757a13.4 13.4 0 0 1 -3.95-9.536 1 1 0 0 0 -1-1h-10a1 1 0 0 0 -1 1 15.385 15.385 0 0 0 4.536 10.95zm4.739-10.707a15.346 15.346 0 0 0 3.628 9h-7.246l-.464-.464a13.386 13.386 0 0 1 -3.914-8.536z" fill="#816ae7" data-original="#b3404a" class=""></path><path d="m34 6h2v2h-2z" fill="#816ae7" data-original="#b3404a" class=""></path><path d="m13 14h2v2h-2z" fill="#816ae7" data-original="#b3404a" class=""></path><path d="m42 1h2v2h-2z" fill="#816ae7" data-original="#b3404a" class=""></path></g></g></svg>