<svg xmlns="http://www.w3.org/2000/svg" version="1.1" xmlns:xlink="http://www.w3.org/1999/xlink" xmlns:svgjs="http://svgjs.com/svgjs" width="512" height="512" x="0" y="0" viewBox="0 0 512 512" style="enable-background:new 0 0 512 512" xml:space="preserve" class=""><g><path xmlns="http://www.w3.org/2000/svg" id="XMLID_83_" d="m491.3 244.7-65.8-65.8c-6.2-6.2-16.4-6.2-22.6 0s-6.2 16.4 0 22.6l38.5 38.5h-73.4v-208c0-8.8-7.2-16-16-16h-160c-4.4 0-8.4 1.8-11.3 4.7l-160 160c-2.9 2.9-4.7 6.9-4.7 11.3v288c0 8.8 7.2 16 16 16h320c8.8 0 16-7.2 16-16v-208h73.4l-38.5 38.5c-6.2 6.2-6.2 16.4 0 22.6 3.1 3.1 7.2 4.7 11.3 4.7s8.2-1.6 11.3-4.7l65.8-65.8c6.3-6.2 6.3-16.4 0-22.6zm-315.3-174.1v105.4h-105.4zm160 393.4h-288v-256h144c8.8 0 16-7.2 16-16v-144h128v192h-112c-8.8 0-16 7.2-16 16s7.2 16 16 16h112z" fill="#ffffff" data-original="#000000" class=""></path></g></svg>