<svg xmlns="http://www.w3.org/2000/svg" version="1.1" xmlns:xlink="http://www.w3.org/1999/xlink" xmlns:svgjs="http://svgjs.com/svgjs" width="512" height="512" x="0" y="0" viewBox="0 0 512 512" style="enable-background:new 0 0 512 512" xml:space="preserve" class=""><g><g xmlns="http://www.w3.org/2000/svg"><g id="layer4" transform="translate(-34.926 -.529)"><path id="LINE-3" d="m112.525.529c-48.127.176-76.564 39.454-76.337 76.586v248.618c0 44.159 22.717 85.329 60.163 108.733l112.266 70.316c34.655 21.659 82.209-4.816 82.209-45.683v-51.007h50.958c41.913 0 76.586-34.424 76.586-76.337v-25.379c.055-14.071-11.307-25.523-25.379-25.579-.083 0-.166 0-.249 0-14.071.055-25.434 11.507-25.379 25.578v25.379c0 14.374-11.205 25.379-25.578 25.379h-50.958v-178.302c0-41.037-24.535-78.236-62.254-94.401l-76.735-32.894h189.947c14.369 0 25.578 11.01 25.578 25.379v25.578c.051 14.003 11.376 25.331 25.379 25.379 14.076.056 25.58-11.303 25.628-25.379v-25.577c0-41.908-34.678-76.386-76.586-76.387h-229.259zm-25.379 78.626 121.323 52.102c19.11 8.19 31.401 26.782 31.401 47.574v203.88 76.387c0 3.499-1.162 4.293-4.13 2.438l-112.515-70.365c-22.606-14.129-36.078-38.781-36.078-65.439v-246.577zm381.237 48.719c-6.452.245-12.571 2.931-17.119 7.514-9.976 9.924-10.02 26.056-.096 36.032.032.032.064.064.096.096l7.315 7.315h-91.216c-14.071-.055-25.523 11.307-25.578 25.379v.199c.055 14.071 11.507 25.434 25.578 25.379h91.465l-7.564 7.564c-9.882 9.938-9.882 25.991 0 35.929 9.938 9.881 25.991 9.881 35.929 0l49.614-49.664c5.596-4.817 8.828-11.825 8.858-19.209.026-7.244-3.032-14.157-8.41-19.01-.084-.084-.169-.167-.255-.249l-49.813-49.763c-4.96-4.993-11.767-7.713-18.804-7.512z" fill="#8c78e8" data-original="#000000" class=""></path></g></g></g></svg>