<svg xmlns="http://www.w3.org/2000/svg" version="1.1" xmlns:xlink="http://www.w3.org/1999/xlink" xmlns:svgjs="http://svgjs.com/svgjs" width="512" height="512" x="0" y="0" viewBox="0 0 32 32" style="enable-background:new 0 0 512 512" xml:space="preserve" class=""><g><g xmlns="http://www.w3.org/2000/svg" id="Layer_41" fill="rgb(0,0,0)"><path d="m9 13c-1.302 0-2.402.839-2.816 2h-3.684c-.276 0-.5.224-.5.5v1c0 .276.224.5.5.5h3.684c.414 1.161 1.514 2 2.816 2s2.402-.839 2.816-2h17.684c.276 0 .5-.224.5-.5v-1c0-.276-.224-.5-.5-.5h-17.684c-.414-1.161-1.514-2-2.816-2zm0 4c-.552 0-1-.448-1-1s.448-1 1-1 1 .448 1 1-.448 1-1 1z" fill="#ffffff" data-original="#000000" class=""></path><path d="m23 21c-1.302 0-2.402.839-2.816 2h-17.684c-.276 0-.5.224-.5.5v1c0 .276.224.5.5.5h17.684c.414 1.161 1.514 2 2.816 2s2.402-.839 2.816-2h3.684c.276 0 .5-.224.5-.5v-1c0-.276-.224-.5-.5-.5h-3.684c-.414-1.161-1.514-2-2.816-2zm0 4c-.552 0-1-.448-1-1s.448-1 1-1 1 .448 1 1-.448 1-1 1z" fill="#ffffff" data-original="#000000" class=""></path><path d="m25.816 7c-.414-1.161-1.514-2-2.816-2s-2.402.839-2.816 2h-17.684c-.276 0-.5.224-.5.5v1c0 .276.224.5.5.5h17.684c.414 1.161 1.514 2 2.816 2s2.402-.839 2.816-2h3.684c.276 0 .5-.224.5-.5v-1c0-.276-.224-.5-.5-.5zm-2.816 2c-.552 0-1-.448-1-1s.448-1 1-1 1 .448 1 1-.448 1-1 1z" fill="#ffffff" data-original="#000000" class=""></path></g></g></svg>