<svg xmlns="http://www.w3.org/2000/svg" version="1.1" xmlns:xlink="http://www.w3.org/1999/xlink" xmlns:svgjs="http://svgjs.com/svgjs" width="512" height="512" x="0" y="0" viewBox="0 0 512 512" style="enable-background:new 0 0 512 512" xml:space="preserve" class=""><g><path xmlns="http://www.w3.org/2000/svg" d="m511.985 53.116a27.964 27.964 0 0 0 -27.964-28.007h-456.042a28 28 0 0 0 -27.964 27.966l-.015 312.355a28 28 0 0 0 27.964 27.964h178.509v43.077c0 10.291 0 34.388-50.652 34.388h-15.474a8.016 8.016 0 0 0 0 16.032h231.306a8.016 8.016 0 0 0 0-16.032h-15.474c-50.652 0-50.652-24.1-50.652-34.388v-12.13a8.016 8.016 0 0 0 -16.031 0v12.13c0 5.654 0 18.894 9.4 30.51a40.832 40.832 0 0 0 3.62 3.878h-93.03a40.832 40.832 0 0 0 3.62-3.878c9.4-11.616 9.4-24.856 9.4-30.51v-43.077h261.53a28 28 0 0 0 27.964-27.964zm-495.939-.041a11.947 11.947 0 0 1 11.933-11.934h456.042a11.931 11.931 0 0 1 11.933 11.951l-.34 232.1a25.487 25.487 0 0 1 -25.452 25.415h-428.662a25.481 25.481 0 0 1 -25.453-25.452zm467.99 324.287h-456.072a11.946 11.946 0 0 1 -11.933-11.932v-47.564a41.267 41.267 0 0 0 25.469 8.773h428.662a41.267 41.267 0 0 0 25.807-9.046v47.837a11.946 11.946 0 0 1 -11.933 11.932z" fill="#42c16e" data-original="#000000" class=""></path><path xmlns="http://www.w3.org/2000/svg" d="m271.724 343.648h-31.448a8.016 8.016 0 1 0 0 16.031h31.448a8.016 8.016 0 1 0 0-16.031z" fill="#42c16e" data-original="#000000" class=""></path><path xmlns="http://www.w3.org/2000/svg" d="m63.427 197.041h52.418a10.665 10.665 0 0 0 2.374-.274 10.665 10.665 0 0 0 2.374.274h52.419a10.749 10.749 0 0 0 2.3-.255 10.178 10.178 0 0 0 2.237.255h52.838a10.191 10.191 0 0 0 10.18-10.179v-113.606a10.191 10.191 0 0 0 -10.18-10.179h-52.838a10.19 10.19 0 0 0 -10.179 10.179v17.679h-46.777a10.222 10.222 0 0 0 -10.393 10.021v13.195h-46.773a10.222 10.222 0 0 0 -10.39 10.021v62.849a10.222 10.222 0 0 0 10.39 10.02zm119.973-117.933h41.134v101.9h-41.134zm-114.332 51.074h41.132v9.959a8.016 8.016 0 1 0 16.031 0v-33.174h41.139v74.043h-41.135v-15.888a8.016 8.016 0 1 0 -16.031 0v15.888h-41.136z" fill="#42c16e" data-original="#000000" class=""></path><path xmlns="http://www.w3.org/2000/svg" d="m291.417 93.169h159.792a8.016 8.016 0 1 0 0-16.031h-159.792a8.016 8.016 0 1 0 0 16.031z" fill="#42c16e" data-original="#000000" class=""></path><path xmlns="http://www.w3.org/2000/svg" d="m291.417 134.972h159.792a8.016 8.016 0 1 0 0-16.031h-159.792a8.016 8.016 0 1 0 0 16.031z" fill="#42c16e" data-original="#000000" class=""></path><path xmlns="http://www.w3.org/2000/svg" d="m451.209 206.418h-93.274a8.016 8.016 0 0 0 0 16.031h93.274a8.016 8.016 0 1 0 0-16.031z" fill="#42c16e" data-original="#000000" class=""></path><path xmlns="http://www.w3.org/2000/svg" d="m291.417 222.449h33.615a8.016 8.016 0 1 0 0-16.031h-33.615a8.016 8.016 0 1 0 0 16.031z" fill="#42c16e" data-original="#000000" class=""></path><path xmlns="http://www.w3.org/2000/svg" d="m291.417 264.252h159.792a8.016 8.016 0 1 0 0-16.032h-159.792a8.016 8.016 0 1 0 0 16.032z" fill="#42c16e" data-original="#000000" class=""></path><path xmlns="http://www.w3.org/2000/svg" d="m291.417 176.775h110.106a8.016 8.016 0 1 0 0-16.031h-110.106a8.016 8.016 0 1 0 0 16.031z" fill="#42c16e" data-original="#000000" class=""></path><path xmlns="http://www.w3.org/2000/svg" d="m228.715 253.377h-29.924l-13.658-24.119a9.754 9.754 0 0 0 -17.243.506l-20.97 42.678-23.689-53.494a9.756 9.756 0 0 0 -17.461-.764l-17.341 31.416h-21.471a8.016 8.016 0 1 0 0 16.031h25.176a9.754 9.754 0 0 0 8.54-5.041l13.02-23.589 24.013 54.224a9.793 9.793 0 0 0 8.728 5.8h.188a9.79 9.79 0 0 0 8.757-5.453l21.658-44.08 9.608 16.967a9.771 9.771 0 0 0 8.486 4.944h33.583a8.016 8.016 0 1 0 0-16.031z" fill="#42c16e" data-original="#000000" class=""></path></g></svg>