<svg xmlns="http://www.w3.org/2000/svg" version="1.1" xmlns:xlink="http://www.w3.org/1999/xlink" xmlns:svgjs="http://svgjs.com/svgjs" width="512" height="512" x="0" y="0" viewBox="0 0 32 32" style="enable-background:new 0 0 512 512" xml:space="preserve" class=""><g><g xmlns="http://www.w3.org/2000/svg" id="Login"><path d="M26.624,2.10254,13.624.0498A4.00006,4.00006,0,0,0,9,4.001V12a1,1,0,0,0,2,0V4.001a2.00189,2.00189,0,0,1,2.31152-1.97657l13,2.05274A1.99235,1.99235,0,0,1,28,6.05371V25.94629a1.99235,1.99235,0,0,1-1.68848,1.97656l-13,2.05274A2.00189,2.00189,0,0,1,11,27.999V20a1,1,0,0,0-2,0v7.999a3.99517,3.99517,0,0,0,4.624,3.95118l13-2.05274A3.98123,3.98123,0,0,0,30,25.94629V6.05371A3.98123,3.98123,0,0,0,26.624,2.10254Z" fill="#ffffff" data-original="#000000" class=""></path><path d="M17.293,20.293A.99989.99989,0,1,0,18.707,21.707l4.99872-4.99872a1.00323,1.00323,0,0,0,0-1.41662L18.707,10.293A.99989.99989,0,0,0,17.293,11.707L20.58594,15H3a1,1,0,0,0,0,2H20.58594Z" fill="#ffffff" data-original="#000000" class=""></path></g></g></svg>