<svg xmlns="http://www.w3.org/2000/svg" version="1.1" xmlns:xlink="http://www.w3.org/1999/xlink" xmlns:svgjs="http://svgjs.com/svgjs" width="512" height="512" x="0" y="0" viewBox="0 0 65 65" style="enable-background:new 0 0 512 512" xml:space="preserve" class="hovered-paths"><g><g xmlns="http://www.w3.org/2000/svg"><g><g><g><g><g><g><g><g><g><g><path d="m4.1311274 40.8221512 2.676908 1.6036644-.041492-13.1838417-2.676908-1.6035919z" fill="#7e8a8c" data-original="#7e8a8c"></path><g fill="#a0a8aa"><path d="m4.7407002 17.7200451c-.3735027.2178707-.6785741.7408123-.6785741 1.1765518l.0275092 8.741785 2.676908 1.6035919-.0275092-8.745472c0-.4357395.3050332-.9586811.6785359-1.1765518l4.5714741-2.6398239-2.6732597-1.6014633z" fill="#a0a8aa" data-original="#a0a8aa" class="hovered-path"></path><path d="m4.1991024 62.4176674c0 .2116394.0747004.3672714.199214.4357414l2.6768703 1.5999451c-.1245136-.0685501-.1992145-.2241821-.1992145-.4357452l-.0264454-8.4079475-2.6769075-1.6036682z" fill="#a0a8aa" data-original="#a0a8aa" class="hovered-path"></path><path d="m4.1726193 54.0059929 2.6769076 1.6036682-.0414915-13.1838455-2.676908-1.6036644z" fill="#a0a8aa" data-original="#a0a8aa" class="hovered-path"></path></g><path d="m9.3157845 15.0786629 2.6732597 1.6014633 9.9048481-5.7196045-2.6721954-1.6008558z" fill="#7e8a8c" data-original="#7e8a8c"></path><path d="m37.5604477 2.1443403-2.670639-1.5999057c-.1245155-.0684692-.2988014-.0622378-.4855537.049813l-4.557188 2.6310086 2.671133 1.6002095 4.556694-2.6313124c.1929817-.1120508.3610763-.1182821.4855537-.049813z" fill="#a0a8aa" data-original="#a0a8aa" class="hovered-path"></path><path d="m19.2216969 9.3596659 2.6721954 1.6008558 10.6243076-6.135056-2.671133-1.6002095z" fill="#8d9799" data-original="#8d9799"></path></g><g><path d="m37.0767555 2.1946952c.3769226-.2176161.6831017-.0439684.68433.3891666l.1366196 43.5213356c.0012245.4331322-.3029671.9600182-.6798897 1.1776352l-29.6592193 17.1237607c-.3762536.2172241-.6824355.0427475-.6836634-.3903885l-.1366195-43.5213375c-.0012283-.4331341.3029675-.9591827.6792212-1.1764126z" fill="#6d797a" data-original="#6d797a"></path><path d="m9.2306347 21.1472645 26.0514088-15.0410228.1234092 39.3476424-26.0514068 15.0407181z" fill="#ffffff" data-original="#ffffff" class=""></path></g><g><g enable-background="new"><g><path d="m30.090292 6.3190227c-.3360672-.1964178-.8026905-.1691699-1.3181553.1283121l-2.9235935 1.6882892-1.0675545-.6210403 2.9247017-1.6882896c.5143566-.2974539.9809818-.3247294 1.3181572-.1283116z" fill="#ffd651" data-original="#ffd651"></path></g><g><path d="m30.0900898 6.3185601c-.3361511-.1929827-.8030491-.1680956-1.3197594.1307449l-1.0645008-.62253c.5166721-.29884.9835682-.3237276 1.3197594-.1307449z" fill="#ddb040" data-original="#ddb040"></path></g><g><path d="m23.8707275 7.2727551c.0011082.4688969-.3281403 1.0399947-.7368851 1.2761617-.2043457.1180553-.390564.1294203-.5256672.0510864l-.4821682-.2807894c.1339951.0783339.3202114.0669966.5256653-.0510864.4076385-.236167.7379951-.8072648.736887-1.2761617-.0011101-.2327576-.0828819-.396245-.2157116-.4734707l.4821701.2807894c.1328297.0771981.2145463.2407132.2157097.4734707z" fill="#ddb040" data-original="#ddb040"></path></g><g><path d="m25.0458527 5.624187c-.4927902-.2815709-1.1705799-.2395763-1.919939.1941447-1.4964447.8628969-2.7067184 2.9587965-2.7021713 4.6800165l.0022163.7595596-1.0675526-.6210403-.0022736-.7595596c-.0045452-1.72122 1.206892-3.8159833 2.7033367-4.6800165.7493591-.4325848 1.4271469-.4745793 1.919939-.1941447z" fill="#ffd651" data-original="#ffd651"></path></g><g><path d="m20.422224 10.4957476.0062313.7594681-1.0707703-.6162987v-.7594672c-.0062313-1.7244196 1.2077084-3.8161101 2.7017956-4.6814356l1.0645008.6225295c-1.494049.8590942-2.7017574 2.9570156-2.7017574 4.6752039z" fill="#ddb040" data-original="#ddb040"></path></g><g><path d="m28.7722321 6.4391608c1.0235615-.5909534 1.8562927-.1155968 1.8596268 1.0605445l.0051517 3.1810732-14.9771509 8.6470623-.0051498-3.1810741c-.003334-1.1761408.8246889-2.6103354 1.8482428-3.2012835l2.9228001-1.68748-.0021534-.7596684c-.004879-1.7209053 1.2060986-3.8167186 2.7022991-4.6805511.7495213-.4327359 1.4275894-.4746337 1.9199219-.1940675.4916267.2801905.7975712.8844628.8000088 1.744092l.0021534.7596684zm-5.6378785 2.1095014c.4081097-.2356224.737587-.8071394.7362576-1.2761068-.0013275-.4681125-.3329601-.6571002-.7410698-.4214778-.4081097.2356219-.7383327.8067322-.7370052 1.2748446.0013294.4689674.3337078.6583624.7418174.42274z" fill="#efc348" data-original="#efc348" class=""></path></g><g><path d="m20.4259586 11.2579079-2.9235916 1.6871805c-1.0229473.591527-1.8506413 2.0254936-1.8472042 3.2017546l.0045462 3.1809826-1.0665007-.6210403-.0056543-3.1809826c-.0033817-1.1762342.8254204-2.6102276 1.8484221-3.2006178l2.92243-1.6883173z" fill="#ffd651" data-original="#ffd651"></path></g><g><path d="m15.6536255 16.1483269.0062313 3.181118-1.0645008-.62253-.0062323-3.1811171c-.0062313-1.17659.821744-2.6084003 1.8488951-3.199811l1.064539.6162977c-1.020958.5914107-1.8489323 2.0294534-1.8489323 3.2060424z" fill="#ddb040" data-original="#ddb040"></path></g></g></g></g></g></g></g><g><path d="m18.4759655 14.3243608c.0760498.1188965.1304321.2648926.1309814.4632568.0018311.6456299-.4522095 1.4320059-1.0064697 1.7520742-.0725098.0418701-.1367188.0479736-.2052002.0709229.1750488.2662354.5050049.3343506.8927002.1104736.5542603-.3199463 1.0083008-1.1064444 1.0064697-1.7519522-.0015869-.5655516-.3590087-.8031004-.8184814-.6447753z" fill="#ddb040" data-original="#ddb040"></path><path d="m18.6069469 14.7876177c-.0005493-.1983643-.0549316-.3443604-.1309814-.4632568-.0651245.0224609-.1257935.0275879-.1945801.0673828-.5618286.3243408-1.0235596 1.1064453-1.0217285 1.7520742.0005493.2000732.0570068.34729.1356201.4667969.0684814-.0229492.1326904-.0290527.2052002-.0709229.5542603-.3200683 1.0083008-1.1064443 1.0064697-1.7520742z" fill="#6d797a" data-original="#6d797a"></path></g><g><path d="m29.0476017 8.2197151c.0760498.1188965.1304321.2648926.1309814.4632568.0018311.6456299-.4522095 1.4320068-1.0064697 1.7520752-.0725098.0418701-.1367188.0479736-.2052002.0709229.1750488.2662354.5050049.3343506.8927002.1104736.5542603-.3199463 1.0083008-1.1064453 1.0064697-1.7519531-.0015869-.5655517-.3590087-.8031006-.8184814-.6447754z" fill="#ddb040" data-original="#ddb040"></path><path d="m29.1785831 8.682972c-.0005493-.1983643-.0549316-.3443604-.1309814-.4632568-.0651245.0224609-.1257935.0275879-.1945801.0673828-.5618286.3243408-1.0235596 1.1064453-1.0217285 1.7520752.0005493.2000732.0570068.34729.1356201.4667969.0684814-.0229492.1326904-.0290527.2052002-.0709229.5542603-.3200684 1.0083008-1.1064454 1.0064697-1.7520752z" fill="#6d797a" data-original="#6d797a"></path></g></g><g><g><path d="m28.7995911 25.6668282v1.6892089l4.9563598-2.8615722v-1.689209z" fill="#d6d4d2" data-original="#d6d4d2"></path></g><g><path d="m28.7995911 16.6540718v1.6842041l4.9563598-2.8615713v-1.6842041z" fill="#d6d4d2" data-original="#d6d4d2"></path></g><g><path d="m15.9300957 40.7746506.0134563 4.7464447-4.1306305 2.384819-.0134563-4.7464447z" fill="#81d672" data-original="#81d672"></path></g><g><path d="m26.4288464 43.9347992-15.5487051 8.9770508.0047607 2.4635315 15.5439444-8.9743042z" fill="#d6d4d2" data-original="#d6d4d2"></path></g><g><path d="m33.7559471 31.8230782-15.5742187 8.9917602.0047607 1.6814575 15.569458-8.9890136z" fill="#d6d4d2" data-original="#d6d4d2"></path></g></g></g></g><g><path d="m27.9669132 40.0017128 13.5397396 7.8684387 13.6283226-7.8683166-13.5397415-7.8684388z" fill="#ffd651" data-original="#ffd651"></path><path d="m27.9669132 40.0017128.0426255 15.0357475 13.5397396 7.8684349-.0426255-15.0357437z" fill="#efc348" data-original="#efc348" class=""></path><path d="m41.5066528 47.8701515.0426255 15.0357437 13.6283264-7.8683166-.0426293-15.0357437z" fill="#ddb040" data-original="#ddb040"></path><path d="m51.279213 50.7697639-.0171013-1.5435447-5.857071 3.3814659.0177384 1.5435448z" fill="#494846" data-original="#494846"></path><path d="m33.6243248 36.7388496 13.5443115 7.8618431v4.5147439l1.1676445-1.7254143 1.1416741.4798546v-4.6054879l-13.5443116-7.8618469z" fill="#f25a5a" data-original="#f25a5a" class=""></path></g><g><g><g><g><path d="m13.9188337 37.3683929-3.7351608 5.4108849c.0165176-.0249252-.0194397-.0901489-.1199894-.1904907-.249033-.2558174-.8104725-.6580505-1.2477207-.896843-.2682619-.1450844-.4288378-.1973495-.454772-.1574974l3.7351608-5.4108887c.0283842-.0399246.188961.0123558.4547882.1574974.439683.2387352.9986248.6385612 1.2501698.8967705.0980844.100399.1364937.165577.1175241.190567z" fill="#494846" data-original="#494846"></path><path d="m10.3004332 41.8065262c-.4377594-.2381363-.9970636-.6399918-1.2493591-.897934-.2513847-.2570114-.1001234-.2723274.337636-.0341911.4393444.2389984.9986486.6408539 1.2500334.8978653.2522954.2579422.1010341.2732582-.3383103.0342598z" fill="#d8463f" data-original="#d8463f"></path><g><path d="m5.1298556 50.335453c-.8309236-.4520111-1.8922615-1.2145767-2.3706543-1.7036743-.4771595-.4878387-.1901238-.5169067.6408-.0648918.8330696.4531784 1.8922594 1.2145767 2.3694193 1.7024155.4783926.4890976.1935048.5193329-.639565.0661506z" fill="#cea03a" data-original="#cea03a"></path></g><path d="m24.2035828 20.6578388c-1.2965069-.751976-3.0903988-.645895-5.0705242.4973831-3.9343109 2.2724266-7.1142874 7.7814026-7.1001444 12.3003178.0047188 2.2488441.7991228 3.828228 2.0767679 4.5731392l-1.3214312-.7706108c-1.2776451-.7425499-2.0720491-2.3242798-2.0791283-4.5707779-.0117836-4.5212746 3.1658335-10.0302505 7.1025038-12.3026772 1.9801254-1.1432781 3.7740173-1.2493591 5.0681648-.4950256z" fill="#555555" data-original="#555555"></path><g><path d="m10.7091341 32.6872711c.0070868 2.2465019.8014755 3.8282394 2.0791302 4.5707893l1.3214006.7705879c-1.2776108-.7449112-2.0720434-2.3242836-2.0767679-4.5731049-.0012255-.3979187.0306664-.8051949.0772991-1.21558l-1.323369-.7679653c-.0466776.4102536-.078743.8174421-.077693 1.215273z" fill="#494846" data-original="#494846"></path><path d="m10.7868271 31.4719982 1.323369.7679653c.2140951-1.8846779.9095736-3.8674355 1.9367371-5.6746826l-1.32372-.7682285c-1.0267258 1.8072033-1.7218103 3.789917-1.9363861 5.6749458z" fill="#2d2c2b" data-original="#2d2c2b"></path><path d="m24.2035999 20.6578255-1.3238087-.7682285c-1.2941456-.7543621-3.0880508-.6482773-5.0681839.4949894-.2528973.1459808-.5023823.3062668-.7483673.4778404l1.3244629.7686214c.2450237-.1708717.4935017-.3303719.7453499-.4758282 1.9801331-1.1432647 3.7740364-1.2493496 5.0705471-.4973945z" fill="#494846" data-original="#494846"></path><path d="m12.7232132 25.7970524 1.32372.7682285c1.1266422-1.9822311 2.6430197-3.7502384 4.3407698-4.9342327l-1.3244629-.7686214c-1.6980563 1.184431-3.2138653 2.9523506-4.3400269 4.9346256z" fill="#383736" data-original="#383736" class=""></path></g><path d="m24.2008705 20.6580582c-.0645256-.0430031-.1361828-.0788307-.2078819-.1147022-.0573082-.0214806-.1218338-.0501785-.1791859-.0788307-.164835-.0716572-.3368454-.1290092-.5160313-.1720123-.0716991-.0215225-.1433563-.0358276-.2150135-.0430012-.0788746-.0215244-.1648788-.0358295-.250885-.0430031-.0071735 0-.0071735 0-.0143051 0-.043045-.0071735-.0931797-.014349-.1433563-.0215225-.028698 0-.0573521-.0071316-.0860043 0-.0860062-.0071316-.1648808-.0143051-.250885-.0143051-.0471153 0-.1003113.0111542-.1484756.0128613-.1952839.0066051-.3930607.0218735-.5969181.0516205 0 0-.0071754 0-.014349 0-.2508411.0358276-.5160313.1003532-.7812214.1863594-.1290073.0358276-.2651901.0788307-.4013729.1361809-.1361809.0501785-.2795391.1003551-.41572.1648369-.2795391.1147022-.5590782.2580605-.845747.4300709-3.9348936 2.2720509-7.117218 7.7837791-7.1029129 12.2992287 0 .1935349.0071745.3798904.0215235.5662498 0 .0214806 0 .0501366.0071745.0788307.0071745.1720123.0286531.3368492.0501766.4945526 0 .0214806 0 .0358276.0071306.0573082.0215235.1290512.0430031.250885.0645256.3655434.0071745.0358734.014349.0645256.0214796.1003571.028698.1648331.0717001.3225403.1218777.4802017.0143051.0358734.0214787.0645256.0358276.1003532.0286541.1003532.0645256.1935349.1003542.2867126v.0071754c.0071745.0214806.0143051.0358276.0214796.0573082.0358276.0860062.0717001.179184.1075287.2651901.0501766.0860062.0931787.179184.1433563.2723656.0501766.0931778.1003103.179184.1576614.2580566.0501776.0788307.1075287.1648369.1648359.2364922 0 0 0 .0071754.0071745.0143509.0430031.0573502.0931797.1146584.1361828.1648369.0645256.0716972.1290073.1433563.2007074.2150116.0788307.0860481.1576614.1648788.2508411.2365379.0501776.0429993.1147032.0860023.1648369.12183.0717001.057354.1433563.1075287.2150564.1505318 1.304471.8027458 3.1249733.7167397 5.146183-.4515495 3.9420681-2.272049 7.1243916-7.7766037 7.1100426-12.2992268-.0071734-2.2505723-.8027437-3.8345834-2.0856913-4.5728017zm-8.8087559 16.0262832c-.3941975 0-.7453928-.0716591-1.0751085-.1935349-.0214796-.0071297-.0430031-.0214806-.0644827-.0286522-.69526-.6880875-1.0751085-1.8133736-1.082283-3.2826805-.0071745-3.9993744 2.8096066-8.8947163 6.2929497-10.901577.9317951-.5375557 1.8491993-.8242683 2.6519432-.8242683.4228954 0 .8027458.0788307 1.1468105.2293606.5160313.5089016.8600521 1.275774 1.0034084 2.2433987.0501766.3225422.071701.6737366.071701 1.0392818 0 .7095642-.0860062 1.454958-.250885 2.2003937-.5590343 2.5372429-2.0140362 5.1461849-3.8775425 7.0096874-.1505299.1433601-.3010616.2867165-.4515495.4228973-.5447273.4945526-1.1181107.9245796-1.7130165 1.2686005-.1146603.0645256-.2293625.1290054-.3511963.1863594-.2293606.12183-.4587231.222187-.6880856.3081894-.222187.0860062-.4443741.1505318-.6665611.2078857-.3296718.0788308-.6450395.1146584-.9461021.1146584z" fill="#21201f" data-original="#21201f" class=""></path><path d="m25.1397972 25.5103531c.0143051 3.9994183-2.8096504 8.8875885-6.2929935 10.8944473-.9317513.5447311-1.8491993.8314438-2.6519432.8314438-.20784 0-.4013729-.0215225-.5877323-.0573502-.5303802-.1003571-.9819298-.3440208-1.3546047-.7167397.0214796.0071716.0430031.0215225.0644827.0286522.3297157.1218758.6809111.1935349 1.0751085.1935349.3010626 0 .6164303-.0358276.9461021-.1146584.222187-.057354.4443741-.1218796.6665611-.2078857.2293625-.0860023.458725-.1863594.6880856-.3081894.1218338-.057354.236536-.1218338.3511963-.1863594.5949059-.3440208 1.1682892-.7740479 1.7130165-1.2686005.1504879-.1361809.3010197-.2795372.4515495-.4228973 1.8635063-1.8635025 3.3185081-4.4724445 3.8775425-7.0096874.1720104-.7454357.2580147-1.4908295.2580147-2.2003937 0-.3727188-.0286541-.7167397-.0788307-1.0392818-.1433563-.9676247-.4873772-1.7344971-1.0034084-2.2433987.4873772.20784.8887501.5519047 1.1897678 1.0249329.444374.6880855.6809101 1.6341877.6880855 2.8024311z" fill="#555555" data-original="#555555"></path><path d="m15.3921146 36.6843414c.3010626 0 .6164303-.0358276.9461021-.1146584-.3296719.0788307-.6450396.12183-.9461021.12183-.3941975 0-.7525673-.0716972-1.0751085-.2007065.3297157.1218758.6809111.1935349 1.0751085.1935349z" fill="#267cb5" opacity=".3" data-original="#267cb5"></path></g></g></g><g><path d="m11.1335602 37.842205-7.4317529 10.8933526c.416465.2474709.8597901.5486221 1.2487819.842205l7.4344215-10.8972473c-.3898229-.2934952-.8342418-.5937691-1.2514505-.8383103z" fill="#006cb5" data-original="#006cb5"></path><path d="m5.9354258 45.4615326-2.2336185 3.274025c.416465.2474709.8597901.5486221 1.2487819.842205l2.2362871-3.2779198c-.3898234-.2934951-.8342419-.593769-1.2514505-.8383102z" fill="#efc348" data-original="#efc348" class=""></path><path d="m10.8350353 37.6738663c-.5067129-.283474-.8072939-.3779221-.8588705-.3006668l-7.4346409 10.897686c.0429151-.077301.352114.0257225.8588712.2920494.0976853.0533714.1988707.1116829.3014119.1726227l7.4317532-10.8933525c-.1015349-.0594979-.2017575-.1164551-.2985249-.1683388z" fill="#005e87" data-original="#005e87"></path><path d="m5.6854811 45.3295937c-.5067134-.283474-.8558741-.4143219-.9074512-.3370667l-2.2365057 3.2783585c.0429151-.077301.352114.0257225.8588712.2920494.0976853.0533714.1988707.1116829.3014119.1726227l2.2336185-3.274025c-.1015349-.0594978-.1531778-.0800552-.2499447-.1319389z" fill="#ddb040" data-original="#ddb040"></path><path d="m12.3850107 38.6805153-7.4344215 10.8972473c.3320785.2506218.6247411.4952927.8202868.6942978.1803226.1889381.2576222.3091965.2232375.3607292l7.4347281-10.8976822c.0343838-.0515366-.0343409-.1717491-.2233248-.360733-.1955461-.1990891-.4883404-.4437637-.8205061-.6938591z" fill="#0074d1" data-original="#0074d1"></path><path d="m7.1868763 46.2998428-2.2362871 3.2779198c.3320785.2506218.6247411.4952927.8202868.6942978.1803226.1889381.2576222.3091965.2232375.3607292l2.2365937-3.2783546c.0343838-.0515327.0142384-.1353493-.1747456-.3243332-.1955457-.1990891-.5369196-.4801636-.8690853-.730259z" fill="#ffd651" data-original="#ffd651"></path></g></g><g><g><path d="m18.7409077 25.2763767c1.7335224-1.0008488 3.1408348-.198864 3.1464615 1.786047.0056477 1.9919472-1.3925266 4.413681-3.1260471 5.4145317-1.7304497.999073-3.1347084.1953239-3.1403551-1.7966232-.0056277-1.9849091 1.389491-4.4048786 3.1199407-5.4039555zm.0183086 6.4579964c1.3751793-.7939606 2.4833279-2.7168884 2.4788494-4.2970734-.0044708-1.5766659-1.119873-2.2123013-2.4950523-1.4183407-1.3721161.7921906-2.4802742 2.7115993-2.4758053 4.2882652.0044804 1.580185 1.119894 2.2193414 2.4920082 1.4271489" fill="#ffffff" data-original="#ffffff" class=""></path></g><g><path d="m22.688406 26.1029053c.2488804.1347923.2501469.5817585.0089493.9959621-.1862507.3084621-.2374401.6482258-.1386738.855587.1418972.2811604-.0100555.784853-.325119 1.1077595-.2324715.2399693-.3848705.5888157-.3809891.8756332.0071316.3878155-.258646.8546047-.5909882 1.0464821-.2752914.1586456-.5008545.4608402-.5910568.7816315-.0930195.3284569-.3162537.622345-.553669.7594147-.0803967.0464172-.1624222.0748672-.2415714.0804291-.0800495.0067635-.1619301.0348663-.2432899.0818367-.1585045.0915031-.3151035.2546921-.430088.4585152-.1205635.2159004-.2765675.3755913-.4331512.465992-.1565838.0904045-.3137474.1115227-.433588.0414734-.1188278-.0758667-.274519-.0587616-.4330006.0327377-.0813675.0469666-.1634369.1135216-.2412472.1979065-.0832138.0902786-.16366.1550255-.2428665.2007561-.2381897.137516-.4656506.1035919-.5606441-.1140327-.0917435-.2192497-.3182697-.2604294-.5634766-.1188812-.3594828.2078438-.6299934.0508156-.625042-.3335381.002223-.3009148-.1485987-.4746971-.381649-.4423714-.318944.0396118-.4732599-.2872581-.3364534-.7258034.1003132-.3258209.0504313-.6072311-.1308308-.6999874-.2488718-.1347866-.2501383-.5817528-.012022-.9941883.1893225-.310236.2374487-.6482296.1386919-.8555965-.1419144-.2811508.0069838-.7830791.3251009-1.1112747.2355337-.2417374.3848791-.5888195.3809996-.8721123-.0071516-.3914375.2615948-.8598232.591114-1.0500717.2751637-.1585712.5007172-.460762.590929-.7815666.093441-.3299141.3199749-.6259823.5581379-.763485.0792332-.0457458.15975-.0739403.2370834-.0798721.0841827-.0067997.16642-.03549.2478027-.0824776.1584568-.0914841.3136978-.2523384.428648-.4561253.1220951-.2167835.2788658-.376915.4354477-.4673195.1565838-.0904026.3129826-.1110783.4312916-.040144.1188107.0758667.2758007.0564651.4342728-.0350285.0813923-.0469933.1631832-.1129951.2399845-.1956234.0809841-.0886459.1615944-.1532726.2406635-.1989231.2405548-.1388855.4668217-.1020966.5597935.1174908.0917759.2157135.3182602.2569389.563467.1153679.3623238-.2094803.6299858-.0473347.625042.3370628-.002224.2973843.1485901.4711685.3847218.4405918.3189354-.039608.4701786.289032.3333626.7240582-.1002943.329338-.0473501.6089801.1339129.7017345zm-3.927084 6.3740501c1.7335205-1.0008507 3.1316948-3.4225845 3.1260471-5.4145317-.0056267-1.984911-1.4129391-2.7868958-3.1464615-1.786047-1.7304497.9990768-3.1255684 3.4190464-3.1199408 5.4039555.0056468 1.9919472 1.4099055 2.7956962 3.1403552 1.7966232" fill="#f25a5a" data-original="#f25a5a" class=""></path></g><g><path d="m18.7430191 26.0189648c1.3751736-.7939568 2.4905758-.1583233 2.4950466 1.4183426.0044785 1.5801849-1.1036701 3.5031128-2.4788418 4.2970695-1.3721218.7921925-2.4875336.1530399-2.4920139-1.4271469-.0044689-1.576664 1.1036892-3.4960728 2.4758091-4.2882652z" fill="#f25a5a" data-original="#f25a5a" class=""></path></g></g></g><g><g><g><g enable-background="new"><g><path d="m35.2843971 22.8246098-1.3669166-.7943669-.0178528-5.809288 1.3669166.7943668z" fill="#2c9a2c" data-original="#2c9a2c" class=""></path></g><g><path d="m35.2665443 17.0153217-1.3669166-.7943668 27.1870575-15.6964539 1.3669166.7943655z" fill="#81d672" data-original="#81d672"></path></g><g><path d="m35.2665443 17.0153217-1.3669166-.7943668 18.9366226-10.9330626 1.3669167.7943654z" fill="#2c9a2c" data-original="#2c9a2c" class=""></path></g><g><path d="m35.2665443 17.0153217-1.3669166-.7943668 4.3428192-2.5073252 1.3669167.794365z" fill="#81d672" data-original="#81d672"></path></g><g><path d="m62.4536018 1.3188665.017849 5.8092883-27.1870537 15.696455-.0178528-5.8092881z" fill="#6dcb60" data-original="#6dcb60" class=""></path></g></g></g></g><g><g enable-background="new"><g><path d="m36.690052 20.9369926-.3508491-.2038917-.0092163-3.2503758.3508491.2038899z" fill="#b2b0af" data-original="#b2b0af"></path></g><g><path d="m36.6808357 17.686615-.3508491-.2038899.6538315-.377491.3508491.2038918z" fill="#b2b0af" data-original="#b2b0af"></path></g><g><path d="m37.3346672 17.3091259.0092163 3.2503777-.6538315.377489-.0092163-3.2503776z" fill="#ffffff" data-original="#ffffff" class=""></path></g></g><g enable-background="new"><g><path d="m44.8565712 15.6158533-.3508492-.2038908 1.5391999-.8886595.3508491.2038918z" fill="#b2b0af" data-original="#b2b0af"></path></g><g><path d="m44.8527832 14.2802248-.3508491-.2038908 1.312191-.7575941.3508491.2038917z" fill="#b2b0af" data-original="#b2b0af"></path></g><g><path d="m44.2090111 16.5959187-.3508492-.2038899-.0092163-3.2503786.3508492.2038918z" fill="#b2b0af" data-original="#b2b0af"></path></g><g><path d="m44.1997948 13.345542-.3508492-.2038918 2.1339913-1.2320604.3508491.2038917z" fill="#b2b0af" data-original="#b2b0af"></path></g><g><path d="m46.333786 12.1134815.0017166.6052065-1.4847145.8572016.0019951.7043352 1.312191-.7575932.0016556.5843373-1.312191.7575941.0021324.7512903 1.5391998-.8886585.0017166.6052065-2.1884765 1.2635174-.0092163-3.2503767z" fill="#ffffff" data-original="#ffffff" class=""></path></g></g><g enable-background="new"><g><path d="m42.4492302 16.6817284-.3508492-.2038899.865181-2.8250103.3508492.2038918z" fill="#b2b0af" data-original="#b2b0af"></path></g><g><path d="m43.3144112 13.85672-.3508492-.2038918.6492729-.3748588.3508492.2038917z" fill="#b2b0af" data-original="#b2b0af"></path></g><g><path d="m40.8761978 15.2644234-.3508491-.2038918.7083015-.4089384.3508492.2038908z" fill="#b2b0af" data-original="#b2b0af"></path></g><g><path d="m42.106781 17.8096428-.3508491-.2038918-1.2305832-2.5452194.3508491.2038918z" fill="#b2b0af" data-original="#b2b0af"></path></g><g><path d="m43.9636841 13.4818611-1.2121544 3.9555359-.6447487.3722458-1.2305832-2.5452194.7083016-.4089394.8647308 1.8262444.865181-2.8250084z" fill="#ffffff" data-original="#ffffff" class=""></path></g></g><g enable-background="new"><g><path d="m39.9555397 17.7713299-.3508491-.2038899-.0055886-1.9721393.3508492.2038908z" fill="#b2b0af" data-original="#b2b0af"></path></g><g><path d="m39.9499512 15.7991915-.3508492-.2038908.6447487-.3722458.3508492.2038917z" fill="#b2b0af" data-original="#b2b0af"></path></g><g><path d="m40.0681381 18.9866543-.3508491-.2038918-1.4131279-1.1594963.3508491.2038918z" fill="#b2b0af" data-original="#b2b0af"></path></g><g><path d="m38.0066528 16.9211559-.3508491-.2038917.5403023-.3119431.3508491.2038899z" fill="#b2b0af" data-original="#b2b0af"></path></g><g><path d="m38.0158653 20.1715336-.3508491-.2038918-.0092125-3.2503776.3508491.2038917z" fill="#b2b0af" data-original="#b2b0af"></path></g><g><path d="m40.5946999 15.4269466.0092125 3.2503777-.5357743.30933-1.4131279-1.1594963.0055886 1.9721374-.6447335.3722382-.0092125-3.2503777.5403023-.3119449 1.4085846 1.1621189-.0055885-1.9721384z" fill="#ffffff" data-original="#ffffff" class=""></path></g></g><g enable-background="new"><g><path d="m53.3648491 10.4315567-.3508568-.2038879c.0523262.0303965.1114006.0484352.1772346.054759.136467.0100517.2864342-.0294991.4544296-.1264915.1680069-.0970001.3176956-.2304554.4536552-.3977919.1314354-.1647224.2355232-.3450127.3122559-.5460882l.3508492.2038908c-.0767326.2010756-.1808205.3813667-.3122559.5460892-.1359596.1673365-.2856483.3007917-.4536552.3977909-.1679955.0969925-.3179626.1365442-.4544296.1264925-.065834-.0063248-.1249084-.0243626-.177227-.0547629z" fill="#b2b0af" data-original="#b2b0af"></path></g><g><path d="m54.2714081 8.0024881.3508453.2038994c.0525169.0305099.098217.0734882.1371002.1295786.0776596.1171646.1190147.2709675.1195908.4744425.0005608.1982574-.0397873.3992167-.1165276.6055384l-.3508492-.2038908c.0767403-.2063227.1170883-.4072819.1165276-.6055393-.000576-.203474-.0419312-.3572769-.1195908-.4744415-.0388831-.0560904-.0845832-.0990697-.1370963-.1295873z" fill="#b2b0af" data-original="#b2b0af"></path></g><g><path d="m54.7734947 7.2923956.3508453.2038975c-.0992851-.0577078-.2137337-.0891571-.3448715-.0916858l-.3508491-.2038913c.1311378.0025287.2455864.033978.3448753.0916796z" fill="#b2b0af" data-original="#b2b0af"></path></g><g><path d="m52.8631363 11.1449604-.3508606-.2038879c-.0808296-.0469809-.1514778-.110919-.2111053-.1918163l.3508492.2038908c.0596274.0808982.1302756.1448364.2111167.1918134z" fill="#b2b0af" data-original="#b2b0af"></path></g><g><path d="m52.6520195 10.9531469-.3508492-.2038908c-.1369095-.1717806-.2013016-.42204-.2022057-.7402802-.0009155-.323473.0618515-.6471319.1973419-.9761972l.3508492.2038918c-.1354904.3290653-.1982574.6527243-.1973419.9761963.0009041.3182411.0652962.5684995.2022057.7402801z" fill="#b2b0af" data-original="#b2b0af"></path></g><g><path d="m52.6471558 9.2366705-.3508492-.2038918c.1309471-.3316689.3165283-.642621.5476875-.917181.2356911-.2823977.4988404-.5074897.7939568-.6778745.2951279-.170392.5586777-.249392.7906685-.2370071l.3508492.2038913c-.2319909-.012385-.4955407.066615-.7906686.237007-.2951164.1703849-.5582657.3954768-.7939568.677875-.2311591.2745591-.4167403.5855122-.5476874.9171811z" fill="#b2b0af" data-original="#b2b0af"></path></g><g><path d="m55.3350868 7.6847911c.1369247.1717877.2013016.4220395.2022209.7455115.0009003.3182411-.0618515.6419067-.1973534.9709654-.1354752.3342829-.3165283.6426363-.5522041.9250269-.2311745.2745667-.4943123.499651-.7894402.670043-.2951164.1703854-.5586815.2493925-.7951813.2448387-.2319756-.012392-.4187126-.1084032-.5511093-.2880297-.1369095-.1717806-.2013016-.422039-.2022057-.7402802-.0009155-.323472.0618515-.647131.1973419-.9761963.1309471-.3316689.3165283-.642622.5476875-.917181.2356911-.2823982.4988403-.5074902.7939568-.677875.2951279-.170392.5586777-.249392.7906685-.2370071.2364885.0045605.4186937.1031713.5556184.2801838zm-.57267 1.7311559c.0767403-.2063217.1170883-.4072809.1165276-.6055384-.000576-.203475-.0419312-.3572779-.1195908-.4744425-.0776176-.1119623-.1823883-.1716814-.3143234-.1843328-.1364632-.0100517-.2864189.0294771-.4544258.1264772-.1679955.0969925-.3176994.2304697-.4536591.3978062-.1314201.1647005-.2355118.345006-.3122559.5460882-.0767288.2063007-.1170883.4072819-.1165123.6107569.0005608.1982565.0419312.3520374.1195755.4692249.0776291.1119547.1823997.1716595.3143234.1843328.136467.0100517.2864342-.0295.4544296-.1264925.1680069-.0969992.3176956-.2304544.4536552-.3977909.1314356-.1647224.2355234-.3450136.312256-.5460891" fill="#ffffff" data-original="#ffffff" class=""></path></g></g><g enable-background="new"><g><path d="m50.760849 12.8132143-.3508492-.2038918-.0074691-2.634736.3508491.2038917z" fill="#b2b0af" data-original="#b2b0af"></path></g><g><path d="m49.8498268 10.7001448-.3508491-.2038918-.0017472-.6156406.3508492.2038908z" fill="#b2b0af" data-original="#b2b0af"></path></g><g><path d="m49.8480797 10.0845032-.3508492-.2038908 2.4609223-1.4208145.3508491.2038908z" fill="#b2b0af" data-original="#b2b0af"></path></g><g><path d="m52.3090019 8.6636887.0017472.6156416-.9035531.5216665.0074692 2.634736-.6538162.3774815-.0074692-2.6347361-.903553.5216666-.0017471-.6156416z" fill="#ffffff" data-original="#ffffff" class=""></path></g></g><g enable-background="new"><g><path d="m48.859314 12.6307344-.3508492-.2038908-.0055923-1.9721384.3508491.2038908z" fill="#b2b0af" data-original="#b2b0af"></path></g><g><path d="m48.8537216 10.658596-.3508491-.2038908.6447487-.3722458.3508491.2038909z" fill="#b2b0af" data-original="#b2b0af"></path></g><g><path d="m48.9719086 13.8460588-.3508492-.2038917-1.4176521-1.1568842.3508491.2038918z" fill="#b2b0af" data-original="#b2b0af"></path></g><g><path d="m46.9058838 11.7831821-.3508492-.2038917.5403176-.3119526.3508491.2038918z" fill="#b2b0af" data-original="#b2b0af"></path></g><g><path d="m46.9150963 15.0335588-.3508492-.2038908-.0092125-3.2503776.3508492.2038917z" fill="#b2b0af" data-original="#b2b0af"></path></g><g><path d="m49.4984703 10.2863503.0092163 3.2503776-.535778.3093309-1.4176522-1.1568841.0055886 1.9721393-.6447487.3722448-.0092125-3.2503767.5403175-.3119525 1.4131127 1.1595048-.0055924-1.9721384z" fill="#ffffff" data-original="#ffffff" class=""></path></g></g><g enable-background="new"><g><path d="m59.6646233 7.6726179-.3508492-.2038913-.0032997-1.1634578.3508491.2038912z" fill="#b2b0af" data-original="#b2b0af"></path></g><g><path d="m60.0136566 5.6629634-.3508491-.2038913.7496223-1.8803527.3508492.2038913z" fill="#b2b0af" data-original="#b2b0af"></path></g><g><path d="m60.763279 3.7826107-.3508492-.2038913.6447334-.3722368.3508492.2038913z" fill="#b2b0af" data-original="#b2b0af"></path></g><g><path d="m58.561161 5.0540042-.3508491-.2038913.6946907-.4010811.3508491.2038913z" fill="#b2b0af" data-original="#b2b0af"></path></g><g><path d="m59.6613235 6.50916-.3508491-.2038912-1.1001625-1.4551559.3508491.2038913z" fill="#b2b0af" data-original="#b2b0af"></path></g><g><path d="m61.4080124 3.4103739-1.0928421 2.7317398.0032692 1.1530232-.6538162.377481-.0032998-1.1634579-1.1001625-1.4551558.6946907-.4010811.7578049 1.0100403.7496224-1.8803527z" fill="#ffffff" data-original="#ffffff" class=""></path></g></g><g enable-background="new"><g><path d="m57.8348351 8.7290602-.3508492-.2038918-.5474358-.5932469.3508492.2038913z" fill="#b2b0af" data-original="#b2b0af"></path></g><g><path d="m57.2176056 7.5803618-.3508492-.2038913c.1952515-.1127281.3449249-.2513862.4490738-.4108076l.3508492.2038913c-.1041489.1594215-.2538223.2980795-.4490738.4108076z" fill="#b2b0af" data-original="#b2b0af"></path></g><g><path d="m57.3448906 6.1455364.3508453.2038894c.0801582.0465841.1236725.1511173.1241341.313602.0005188.18262-.0535812.3497267-.1531906.5065265l-.3508492-.2038913c.0996094-.1567998.1537094-.3239064.1531906-.5065265-.0004615-.1624847-.0439758-.2670179-.1241302-.3136001z" fill="#b2b0af" data-original="#b2b0af"></path></g><g><path d="m56.6863747 7.8870678-.3508492-.2038913.5312309-.3067059.3508492.2038912z" fill="#b2b0af" data-original="#b2b0af"></path></g><g><path d="m57.8574142 5.4389453.3508492.2038918c-.0841866-.0489244-.1858673-.0698037-.3050537-.0626268-.1864128.0135593-.4045105.0872216-.6542358.2313995l-.3508492-.2038913c.2497215-.1441779.467823-.2178402.6542358-.2313995.1191864-.0071769.2208672.0137023.3050537.0626263z" fill="#b2b0af" data-original="#b2b0af"></path></g><g><path d="m56.0275993 6.5167713-.3508491-.2038913 1.2213745-.7051615.3508491.2038912z" fill="#b2b0af" data-original="#b2b0af"></path></g><g><path d="m56.0368118 9.767149-.3508491-.2038918-.0092125-3.2503772.3508491.2038913z" fill="#b2b0af" data-original="#b2b0af"></path></g><g><path d="m57.899971 7.646286.6386185.6764612-.7037544.4063129-.5474358-.5932474-.0317841.0183496-.5675545.3276777.0025749.9078245-.6538238.3774845-.0092125-3.2503777 1.2213745-.7051616c.2497253-.1441779.467823-.2178402.6542358-.2313995.1818962-.0109529.3230209.0434403.4234123.1631427.1003952.1197314.1509285.2995882.1516113.5395694.000679.2400103-.0486755.4775376-.1480598.7125826-.0994033.2298564-.2442969.4493699-.4302024.6507811zm-.2332916-.4767318c.0996094-.1567998.1537094-.3239064.1531906-.5065265-.0005188-.182591-.0554008-.2920012-.1555595-.3282413-.1047096-.038836-.2546654.0007076-.449913.1134362l-.5312309.3067055.0032082 1.1321397.5312309-.306706c.1952514-.1127281.3449248-.2513861.4490737-.4108076" fill="#ffffff" data-original="#ffffff" class=""></path></g></g></g></g></g></g></g></svg>