<svg xmlns="http://www.w3.org/2000/svg" version="1.1" xmlns:xlink="http://www.w3.org/1999/xlink" xmlns:svgjs="http://svgjs.com/svgjs" width="512" height="512" x="0" y="0" viewBox="0 0 500 500" style="enable-background:new 0 0 512 512" xml:space="preserve" class=""><g><path xmlns="http://www.w3.org/2000/svg" d="m223.867 383.758h-6.724c-6.627 0-12-5.373-12-12s5.373-12 12-12h6.724c6.627 0 12 5.373 12 12s-5.373 12-12 12z" fill="#ffffff" data-original="#000000" class=""></path><path xmlns="http://www.w3.org/2000/svg" d="m461.958 236.555c5.62-9.191 8.866-19.995 8.866-31.548 0-33.354-27.031-60.491-60.257-60.491s-60.257 27.137-60.257 60.491c0 11.573 3.259 22.393 8.896 31.595-9.155 6.008-17.071 13.77-23.275 22.794-7.215-7.565-15.457-14.005-24.496-19.183 9.786-12.973 15.606-29.121 15.606-46.613 0-42.655-34.561-77.358-77.042-77.358s-77.042 34.703-77.042 77.358c0 17.492 5.819 33.64 15.606 46.613-9.039 5.177-17.28 11.618-24.495 19.183-6.203-9.025-14.119-16.786-23.274-22.794 5.637-9.202 8.896-20.022 8.896-31.595 0-33.354-27.031-60.491-60.257-60.491s-60.257 27.137-60.257 60.491c0 11.553 3.247 22.356 8.866 31.548-23.509 15.316-38.042 41.586-38.042 70.483v25.666c0 6.627 5.373 12 12 12h121.867v27.054c0 6.627 5.373 12 12 12h39.091c6.627 0 12-5.373 12-12s-5.373-12-12-12h-27.091v-24.93c0-33.124 19.471-63.346 49.056-77.122 12.304 8.363 27.133 13.252 43.077 13.252s30.772-4.889 43.077-13.252c29.585 13.776 49.057 43.998 49.057 77.122v24.93h-83.814c-6.627 0-12 5.373-12 12s5.373 12 12 12h95.814c6.627 0 12-5.373 12-12v-27.054h121.866c6.627 0 12-5.373 12-12v-25.666c0-28.897-14.533-55.167-38.042-70.483zm-372.525-68.038c19.992 0 36.257 16.37 36.257 36.491 0 20.122-16.265 36.492-36.257 36.492s-36.257-16.37-36.257-36.492c-.001-20.121 16.264-36.491 36.257-36.491zm-65.433 138.521c0-22.115 11.889-42.072 30.801-52.573 9.806 6.941 21.748 11.034 34.632 11.034 12.875 0 24.809-4.088 34.611-11.02 10.503 5.872 19.084 14.848 24.484 25.656-7.253 12.503-11.898 26.236-13.742 40.567h-110.786zm172.958-113.437c0-29.422 23.795-53.358 53.042-53.358s53.042 23.937 53.042 53.358-23.795 53.358-53.042 53.358c-29.248 0-53.042-23.937-53.042-53.358zm213.609-25.084c19.992 0 36.257 16.37 36.257 36.491 0 20.122-16.265 36.492-36.257 36.492s-36.257-16.37-36.257-36.492c.001-20.121 16.265-36.491 36.257-36.491zm65.433 152.187h-110.786c-1.843-14.332-6.489-28.064-13.742-40.567 5.4-10.808 13.981-19.785 24.484-25.656 9.802 6.932 21.736 11.02 34.611 11.02 12.883 0 24.825-4.094 34.631-11.034 18.913 10.499 30.802 30.456 30.802 52.571z" fill="#ffffff" data-original="#000000" class=""></path></g></svg>