<svg xmlns="http://www.w3.org/2000/svg" version="1.1" xmlns:xlink="http://www.w3.org/1999/xlink" xmlns:svgjs="http://svgjs.com/svgjs" width="512" height="512" x="0" y="0" viewBox="0 0 512.004 512.004" style="enable-background:new 0 0 512 512" xml:space="preserve" class=""><g><g xmlns="http://www.w3.org/2000/svg" id="XMLID_1610_"><g id="XMLID_149_"><path id="XMLID_196_" d="m298.002 292.275v-14.399c7.495-4.271 14.28-9.641 20.135-15.899 3.97 13.162 16.201 22.777 30.639 22.777 17.645 0 32-14.355 32-32v-20c0-13.367-8.242-24.84-19.908-29.62 8.505-15.725 12.959-33.124 12.959-51.106 0-57.943-46.511-105.751-105.901-111.453-5.026-6.69-12.168-11.275-20.247-13.078-2.449-11.01-10.044-20.223-20.954-24.742-10.91-4.518-22.792-3.373-32.309 2.677-9.517-6.051-21.402-7.194-32.308-2.677-10.908 4.519-18.502 13.731-20.953 24.739-11.007 2.451-20.221 10.046-24.739 20.953-2.837 6.85-3.439 14.084-1.997 20.875-10.156-.849-20.304 2.755-27.872 10.4-8.264 8.35-11.704 19.734-9.75 30.794-9.224 6.489-14.813 17.04-14.796 28.848.018 11.807 5.638 22.34 14.879 28.803-1.932 11.11 1.577 22.522 9.937 30.858 8.354 8.329 19.763 11.808 30.857 9.851 3.902 5.595 9.297 9.84 15.715 12.332-1.392 3.585-2.165 7.477-2.165 11.547v20c0 17.645 14.355 32 32 32 14.439 0 26.67-9.615 30.639-22.777 5.855 6.258 12.641 11.628 20.136 15.899v14.399c-95.721 5.211-172 84.73-172 181.729v28c0 5.522 4.477 10 10 10h408c5.522 0 10-4.478 10-10v-28c.003-96.999-76.276-176.519-171.997-181.73zm62.774-39.521c0 6.617-5.383 12-12 12s-12-5.383-12-12v-20c0-6.617 5.383-12 12-12s12 5.383 12 12zm-6.948-100.727c0 16.059-4.377 31.564-12.699 45.342v-29.241c0-5.522-4.478-10-10-10-22.093 0-42.873-9.756-57.013-26.766-1.744-2.098-4.27-3.393-6.991-3.583-2.72-.191-5.402.739-7.423 2.573-21.611 19.627-49.606 30.437-78.827 30.437-5.523 0-10 4.478-10 10v26.591c-8.321-13.785-12.699-29.339-12.699-45.353 0-50.742 43.885-92.023 97.826-92.023s97.826 41.281 97.826 92.023zm-215.044-78.696c-5.917-5.341-5.887-12.403-3.887-17.231 2-4.829 6.971-9.85 14.934-9.437 2.822.142 5.581-.915 7.581-2.916s3.06-4.756 2.916-7.581c-.406-7.961 4.608-12.935 9.437-14.935 4.828-2 11.891-2.028 17.232 3.888 1.896 2.101 4.593 3.299 7.422 3.299s5.526-1.198 7.422-3.299c5.343-5.916 12.404-5.885 17.232-3.888 4.829 2.001 9.843 6.974 9.437 14.935-.12 2.344.6 4.632 1.987 6.489-39.716 8.366-71.957 35.84-85.466 71.719-5.241-1.346-8.644-5.282-10.185-9.09-.942-2.328-3.443-10.444 3.938-17.107 2.1-1.896 3.299-4.594 3.299-7.423s-1.199-5.527-3.299-7.423zm-12.311 114.289c-2.615-1.079-5.565-.999-8.12.219-7.193 3.433-13.711.713-17.413-2.978-3.701-3.689-6.44-10.199-3.029-17.403 1.211-2.557 1.282-5.507.195-8.12-1.086-2.612-3.229-4.642-5.896-5.586-7.514-2.66-10.199-9.192-10.207-14.418-.008-5.227 2.659-11.767 10.165-14.448 2.664-.952 4.801-2.988 5.88-5.604s.999-5.566-.22-8.12c-3.419-7.166-.725-13.672 2.936-17.37 3.146-3.179 8.367-5.655 14.329-4.18-2.184 7.429-1.877 15.538 1.214 23.175 4.273 10.562 12.977 18.071 23.463 20.864-1.043 5.981-1.594 12.119-1.594 18.377 0 17.877 4.428 35.27 12.885 50.975-2.584.767-5.402.886-8.15.26-2.985-.678-8.363-2.848-10.833-9.763-.954-2.665-2.99-4.802-5.605-5.88zm48.754 65.134c0 6.617-5.383 12-12 12s-12-5.383-12-12v-20c0-6.617 5.383-12 12-12s12 5.383 12 12zm15.648-48.876v-23.449c27.266-1.978 53.218-12.009 74.708-28.879 15.106 14.684 34.611 23.831 55.546 26.051v26.277c0 35.91-29.216 65.126-65.127 65.126s-65.127-29.216-65.127-65.126zm-84.772 159.145c33.215 13.24 68.087 22.01 103.765 26.086.386.044.768.065 1.147.065 5.015 0 9.34-3.765 9.923-8.866.626-5.487-3.313-10.443-8.801-11.07-30.723-3.509-60.811-10.693-89.671-21.365 27.799-22.422 63.124-35.869 101.536-35.869 5.523 0 10-4.478 10-10v-15.898c7.022 1.881 14.393 2.898 22 2.898s14.978-1.018 22-2.898v15.898c0 5.522 4.478 10 10 10 38.412 0 73.737 13.447 101.536 35.869-28.885 10.682-58.997 17.868-89.744 21.373-5.487.626-9.429 5.581-8.803 11.068.582 5.103 4.907 8.868 9.923 8.868.378 0 .761-.021 1.146-.065 35.701-4.07 70.6-12.844 103.841-26.094 13.248 14.066 24.015 30.491 31.592 48.574-6.562 6.251-15.215 9.761-24.456 9.761-8.938 0-17.482-3.335-24.06-9.391-2.548-2.347-6.129-3.206-9.466-2.274-3.337.933-5.952 3.526-6.914 6.854-4.365 15.104-18.402 25.652-34.135 25.652-12.566 0-23.951-6.436-30.455-17.215-2.031-3.367-5.853-5.22-9.749-4.764-3.903.467-7.172 3.178-8.353 6.927-4.68 14.867-18.305 24.855-33.904 24.855-15.6 0-29.225-9.988-33.904-24.854-1.18-3.75-4.448-6.461-8.352-6.928-3.904-.46-7.718 1.397-9.749 4.764-6.504 10.779-17.889 17.215-30.456 17.215-15.732 0-29.77-10.549-34.135-25.652-.962-3.328-3.578-5.922-6.915-6.854-3.333-.933-6.917-.072-9.466 2.274-6.577 6.056-15.121 9.391-24.06 9.391-9.242 0-17.895-3.509-24.456-9.76 7.58-18.083 18.347-34.509 31.595-48.575zm343.899 128.981h-388v-18c0-14.639 1.963-28.825 5.62-42.323 9.104 6.247 19.935 9.678 31.345 9.678 9.39 0 18.501-2.354 26.587-6.771 9.796 16.735 28.018 27.613 47.987 27.613 13.899 0 26.872-5.035 36.868-13.947 10.167 14.649 26.98 23.751 45.593 23.751 18.611 0 35.426-9.103 45.593-23.751 9.996 8.912 22.969 13.947 36.868 13.947 19.97 0 38.191-10.878 47.987-27.613 8.086 4.417 17.197 6.771 26.587 6.771 11.41 0 22.24-3.431 31.344-9.678 3.657 13.498 5.62 27.685 5.62 42.324v17.999z" fill="#ffffff" data-original="#000000" class=""></path><path id="XMLID_212_" d="m275.072 230.773c3.905-3.905 3.905-10.237 0-14.143-3.906-3.904-10.236-3.904-14.143 0-2.716 2.717-7.138 2.717-9.856 0-3.905-3.904-10.237-3.904-14.142 0-3.905 3.906-3.905 10.237 0 14.143 5.258 5.258 12.164 7.886 19.07 7.886s13.813-2.629 19.071-7.886z" fill="#ffffff" data-original="#000000" class=""></path><path id="XMLID_625_" d="m256.002 391.733c2.63 0 5.21-1.069 7.069-2.93 1.86-1.86 2.931-4.44 2.931-7.07s-1.07-5.21-2.931-7.069c-1.859-1.86-4.439-2.931-7.069-2.931s-5.21 1.07-7.07 2.931c-1.86 1.859-2.93 4.439-2.93 7.069s1.07 5.21 2.93 7.07c1.86 1.861 4.439 2.93 7.07 2.93z" fill="#ffffff" data-original="#000000" class=""></path></g></g></g></svg>