<svg xmlns="http://www.w3.org/2000/svg" version="1.1" xmlns:xlink="http://www.w3.org/1999/xlink" xmlns:svgjs="http://svgjs.com/svgjs" width="512" height="512" x="0" y="0" viewBox="0 0 32 32" style="enable-background:new 0 0 512 512" xml:space="preserve" class=""><g><path xmlns="http://www.w3.org/2000/svg" d="m29.44 16.43a1.15 1.15 0 0 0 -.24-1.23l-3.2-3.2a1.12 1.12 0 0 0 -1.59 1.59l1.26 1.26h-7.28a1.12 1.12 0 0 0 0 2.25h7.29l-1.26 1.26a1.12 1.12 0 1 0 1.58 1.64l3.18-3.18a1.12 1.12 0 0 0 .26-.39z" fill="#ffffff" data-original="#000000" class=""></path><path xmlns="http://www.w3.org/2000/svg" d="m21.6 20.43a1.12 1.12 0 0 0 -1.12 1.12v4.57a1.13 1.13 0 0 1 -1.12 1.12h-4.5v-22.49h4.5a1.13 1.13 0 0 1 1.12 1.12v4.43a1.12 1.12 0 1 0 2.25 0v-4.42a3.38 3.38 0 0 0 -3.37-3.37h-4.63a3.36 3.36 0 0 0 -4.32-2.33l-5.63 1.87a3.37 3.37 0 0 0 -2.31 3.2v21.5a3.37 3.37 0 0 0 2.31 3.2l5.62 1.88a3.4 3.4 0 0 0 1.08.18 3.37 3.37 0 0 0 3.24-2.51h4.62a3.38 3.38 0 0 0 3.37-3.37v-4.57a1.12 1.12 0 0 0 -1.11-1.13zm-9 8.19a1.13 1.13 0 0 1 -1.48 1.07l-5.62-1.88a1.13 1.13 0 0 1 -.77-1.07v-21.49a1.13 1.13 0 0 1 .77-1.06l5.62-1.88a1.13 1.13 0 0 1 1.48 1.07z" fill="#ffffff" data-original="#000000" class=""></path></g></svg>