<svg xmlns="http://www.w3.org/2000/svg" version="1.1" xmlns:xlink="http://www.w3.org/1999/xlink" xmlns:svgjs="http://svgjs.com/svgjs" width="512" height="512" x="0" y="0" viewBox="0 0 512 512" style="enable-background:new 0 0 512 512" xml:space="preserve" class=""><g><path xmlns="http://www.w3.org/2000/svg" d="m378.300781 472.582031c67.226563-43.679687 111.699219-119.433593 111.699219-205.582031 0-135.308594-109.691406-245-245-245s-245 109.6875-245 245c0 61.8125 22.898438 118.269531 60.664062 161.371094zm0 0" fill="#fbc840" data-original="#fbc840"></path><path xmlns="http://www.w3.org/2000/svg" d="m329.515625 12.460938h-219.785156c-20.671875 0-37.585938 16.914062-37.585938 37.589843v390.550781c44.300781 44.121094 105.386719 71.398438 172.855469 71.398438 44.46875 0 86.15625-11.859375 122.105469-32.566406v-429.382813c0-20.675781-16.914063-37.589843-37.589844-37.589843zm0 0" fill="#2299f2" data-original="#2299f2" class=""></path><path xmlns="http://www.w3.org/2000/svg" d="m143.8125 50.050781c0-14.964843 6.609375-28.410156 17.054688-37.589843h-51.136719c-20.671875 0-37.585938 16.914062-37.585938 37.589843v390.550781c20.605469 20.519532 44.84375 37.390626 71.667969 49.578126zm0 0" fill="#1588e8" data-original="#1588e8" class=""></path><path xmlns="http://www.w3.org/2000/svg" d="m329.515625 0h-219.785156c-27.597657 0-50.046875 22.453125-50.046875 50.050781v377.183594c7.699218 8.902344 16.03125 17.238281 24.921875 24.945313v-402.128907c0-13.878906 11.25-25.128906 25.125-25.128906h40.699219c1.203124 0 2.179687.976563 2.179687 2.183594 0 10.082031 8.253906 18.335937 18.335937 18.335937h95.949219c10.085938 0 18.335938-8.253906 18.335938-18.335937 0-1.207031.976562-2.183594 2.183593-2.183594h42.101563c13.878906 0 25.128906 11.25 25.128906 25.128906v436.089844c8.609375-4.316406 16.929688-9.117187 24.921875-14.382813v-421.707031c0-27.597656-22.453125-50.050781-50.050781-50.050781zm0 0" fill="#554cbf" data-original="#554cbf" class=""></path><path xmlns="http://www.w3.org/2000/svg" d="m310.511719 106.128906h-181.777344c-10.007813 0-18.195313 8.1875-18.195313 18.195313v104.019531h218.171876v-104.019531c0-10.007813-8.191407-18.195313-18.199219-18.195313zm0 0" fill="#52b0f5" data-original="#52b0f5"></path><path xmlns="http://www.w3.org/2000/svg" d="m110.539062 124.324219v104.019531h30.722657c.265625-2.152344-.277344-4.359375-1.625-6.136719-5.832031-7.683593-1.175781-14.742187 1.910156-18.105469 1.421875-1.554687 2.171875-3.609374 2.171875-5.714843v-81.925781c0-1.457032-.316406-2.910157-1.027344-4.183594-1.25-2.226563-1.71875-4.304688-1.746094-6.148438h-12.210937c-10.007813 0-18.195313 8.1875-18.195313 18.195313zm0 0" fill="#2299f2" data-original="#2299f2" class=""></path><path xmlns="http://www.w3.org/2000/svg" d="m310.511719 294.964844h-181.777344c-10.007813 0-18.195313 8.1875-18.195313 18.195312v54.4375c3.964844 2.632813 7.847657 5.324219 15.769532 5.324219 15.542968 0 15.542968-10.355469 31.089844-10.355469 15.546874 0 15.546874 10.355469 31.09375 10.355469 15.546874 0 15.546874-10.355469 31.09375-10.355469 15.546874 0 15.546874 10.355469 31.097656 10.355469 15.546875 0 15.546875-10.355469 31.09375-10.355469 15.550781 0 15.550781 10.355469 31.097656 10.355469 7.964844 0 11.851562-2.71875 15.835938-5.367187v-54.394532c0-10.007812-8.191407-18.195312-18.199219-18.195312zm0 0" fill="#f7cd4b" data-original="#f7cd4b"></path><path xmlns="http://www.w3.org/2000/svg" d="m128.734375 294.964844c-10.007813 0-18.195313 8.1875-18.195313 18.195312v54.4375c3.964844 2.636719 7.847657 5.324219 15.769532 5.324219 7.578125 0 11.460937-2.460937 15.25-4.984375.601562-1.164062 1.191406-2.074219 1.621094-2.679688.433593-.605468.667968-1.324218.667968-2.070312v-59.0625c0-.859375-.316406-1.691406-.882812-2.339844-2.164063-2.480468-2.953125-4.792968-3-6.824218h-11.230469zm0 0" fill="#f9b50b" data-original="#f9b50b"></path><path xmlns="http://www.w3.org/2000/svg" d="m188.492188 372.921875c15.546874 0 15.546874-10.351563 31.09375-10.351563 15.546874 0 15.546874 10.351563 31.09375 10.351563 5.550781 0 9.113281-1.320313 12.117187-3.015625-1.039063-22.949219-19.96875-41.238281-43.171875-41.238281-23.21875 0-42.15625 18.3125-43.171875 41.277343 2.984375 1.675782 6.535156 2.976563 12.039063 2.976563zm0 0" fill="#ef9f35" data-original="#ef9f35"></path><path xmlns="http://www.w3.org/2000/svg" d="m176.453125 369.949219c2.984375 1.671875 6.539063 2.972656 12.039063 2.972656 15.546874 0 15.546874-10.351563 31.09375-10.351563.664062 0 1.292968.023438 1.902343.058594-12.667969-15.75-1.863281-33.960937-1.863281-33.960937-23.21875 0-42.15625 18.3125-43.171875 41.28125zm0 0" fill="#f48e06" data-original="#f48e06"></path><path xmlns="http://www.w3.org/2000/svg" d="m312.875 370.851562c-15.550781 0-15.550781-10.351562-31.097656-10.351562s-15.546875 10.351562-31.097656 10.351562c-15.546876 0-15.546876-10.351562-31.09375-10.351562-15.546876 0-15.546876 10.351562-31.09375 10.351562-15.546876 0-15.546876-10.351562-31.09375-10.351562-15.546876 0-15.546876 10.351562-31.089844 10.351562-7.921875 0-11.808594-2.6875-15.769532-5.324218v29.507812c3.960938 2.636719 7.847657 5.324219 15.769532 5.324219 15.542968 0 15.542968-10.351563 31.089844-10.351563 15.546874 0 15.546874 10.351563 31.09375 10.351563 15.546874 0 15.546874-10.351563 31.09375-10.351563 15.546874 0 15.546874 10.351563 31.09375 10.351563 15.546874 0 15.546874-10.351563 31.097656-10.351563 15.546875 0 15.546875 10.351563 31.097656 10.351563 7.964844 0 11.851562-2.714844 15.835938-5.363281v-29.511719c-3.984376 2.652344-7.871094 5.367187-15.835938 5.367187zm0 0" fill="#52b0f5" data-original="#52b0f5"></path><path xmlns="http://www.w3.org/2000/svg" d="m143.558594 364.554688c-4.542969 2.902343-8.347656 6.296874-17.25 6.296874-7.921875 0-11.804688-2.6875-15.769532-5.324218v29.507812c3.964844 2.636719 7.847657 5.324219 15.769532 5.324219 7.6875 0 11.574218-2.53125 15.417968-5.089844.296876-.640625.601563-1.207031.882813-1.675781.671875-1.117188.671875-2.523438 0-3.636719-7.230469-11.957031-1.492187-21.804687.570313-24.695312.15625-.222657.277343-.460938.378906-.707031zm0 0" fill="#2299f2" data-original="#2299f2" class=""></path><path xmlns="http://www.w3.org/2000/svg" d="m312.875 398.289062c-15.550781 0-15.550781-10.351562-31.097656-10.351562s-15.546875 10.351562-31.097656 10.351562c-15.546876 0-15.546876-10.351562-31.09375-10.351562-15.546876 0-15.546876 10.351562-31.09375 10.351562-15.546876 0-15.546876-10.351562-31.09375-10.351562-15.546876 0-15.546876 10.351562-31.089844 10.351562-7.921875 0-11.808594-2.6875-15.769532-5.324218v24.214844h218.171876v-24.253907c-3.984376 2.648438-7.871094 5.363281-15.835938 5.363281zm0 0" fill="#2299f2" data-original="#2299f2" class=""></path><path xmlns="http://www.w3.org/2000/svg" d="m142.6875 413.132812c-4.90625-9.199218-1.976562-16.378906-.078125-19.539062.242187-.398438.390625-.835938.460937-1.28125-4.335937 2.824219-8.183593 5.976562-16.761718 5.976562-7.921875 0-11.804688-2.6875-15.769532-5.324218v24.214844h31.792969c.078125-.125.15625-.246094.230469-.359376.726562-1.109374.75-2.515624.125-3.6875zm0 0" fill="#1588e8" data-original="#1588e8" class=""></path><path xmlns="http://www.w3.org/2000/svg" d="m292.921875 189.855469c-34.683594-15.375-50.535156-40.738281-57.683594-58.746094-3.285156-8.273437-13.351562-11.675781-21.125-7.121094l-.238281.136719c-4.683594 2.742188-10.53125 2.703125-15.171875-.105469l-.078125-.046875c-7.808594-4.71875-18.011719-1.285156-21.339844 7.097656-17.195312 43.375-52.683594 55.953126-66.746094 63.066407v34.210937h218.171876v-15.578125c-4.867188-5.378906-15.011719-13.703125-35.789063-22.914062zm0 0" fill="#aa3d27" data-original="#aa3d27"></path><path xmlns="http://www.w3.org/2000/svg" d="m193.179688 147.167969c0-15.652344 6.539062-20.027344 11.324218-21.136719-2.023437-.257812-4.003906-.921875-5.804687-2.011719l-.074219-.046875c-7.808594-4.722656-18.015625-1.285156-21.339844 7.097656-17.195312 43.375-52.683594 55.953126-66.746094 63.066407v34.207031h3.476563c11.261719-3.632812 22.988281-7.453125 33.164063-10.84375 32-10.667969 46-45.667969 46-70.332031zm0 0" fill="#98341a" data-original="#98341a"></path><path xmlns="http://www.w3.org/2000/svg" d="m217.554688 415.109375v32.78125h92.957031c10.007812 0 18.199219-8.191406 18.199219-18.199219v-14.582031zm0 0" fill="#5bbf02" data-original="#5bbf02"></path><path xmlns="http://www.w3.org/2000/svg" d="m219.625 415.109375h-109.085938v14.582031c0 10.007813 8.1875 18.199219 18.195313 18.199219h90.890625zm0 0" fill="#d9f5ff" data-original="#d9f5ff"></path><path xmlns="http://www.w3.org/2000/svg" d="m143.121094 415.109375h-32.582032v14.582031c0 10.007813 8.1875 18.199219 18.195313 18.199219h11.871094c-.136719-2.671875.808593-4.757813 1.714843-6.109375.773438-1.148438.859376-2.644531.136719-3.820312-5.933593-9.652344-2.125-17.746094.105469-21.140626.34375-.523437.523438-1.113281.558594-1.710937zm0 0" fill="#82c6f9" data-original="#82c6f9"></path><path xmlns="http://www.w3.org/2000/svg" d="m328.710938 197.820312c-8.257813-2.832031-18.078126-1.066406-24.664063 7.078126-1.5 1.859374-4.335937 1.867187-5.835937.007812-9-11.136719-25.917969-11.140625-34.921876 0-1.496093 1.855469-4.332031 1.855469-5.828124 0-9-11.136719-25.917969-11.140625-34.921876 0-1.496093 1.855469-4.328124 1.855469-5.828124 0-8.996094-11.136719-25.917969-11.140625-34.921876 0-1.496093 1.855469-4.328124 1.855469-5.828124 0-8.996094-11.136719-25.917969-11.140625-34.921876 0-1.5 1.859375-4.332031 1.851562-5.835937-.007812-6.585937-8.144532-16.40625-9.910157-24.664063-7.078126v30.523438h218.171876zm0 0" fill="#83d912" data-original="#83d912"></path><path xmlns="http://www.w3.org/2000/svg" d="m139.636719 222.207031c-5.074219-6.679687-2.210938-12.890625.648437-16.609375-1.5625 1.113282-3.804687.882813-5.082031-.699218-6.585937-8.144532-16.40625-9.910157-24.664063-7.078126v30.523438h30.722657c.265625-2.152344-.277344-4.359375-1.625-6.136719zm0 0" fill="#5bbf02" data-original="#5bbf02"></path><path xmlns="http://www.w3.org/2000/svg" d="m217.554688 226.273438v32.78125h92.957031c10.007812 0 18.199219-8.1875 18.199219-18.195313v-14.585937zm0 0" fill="#5bbf02" data-original="#5bbf02"></path><path xmlns="http://www.w3.org/2000/svg" d="m219.625 226.273438h-109.085938v14.585937c0 10.007813 8.1875 18.195313 18.195313 18.195313h90.890625zm0 0" fill="#d9f5ff" data-original="#d9f5ff"></path><path xmlns="http://www.w3.org/2000/svg" d="m110.539062 240.859375c0 10.007813 8.1875 18.195313 18.195313 18.195313h12.132813c-.03125-1.746094.371093-3.285157.886718-4.519532.925782-2.230468.773438-4.792968-.339844-6.9375-3.734374-7.179687-2.609374-12.960937-.875-16.683594.691407-1.46875.921876-3.078124.734376-4.636718h-30.734376zm0 0" fill="#82c6f9" data-original="#82c6f9"></path><path xmlns="http://www.w3.org/2000/svg" d="m310.511719 266.816406h-181.777344c-14.3125 0-25.960937-11.644531-25.960937-25.957031v-116.535156c0-14.3125 11.648437-25.957031 25.960937-25.957031h181.777344c14.316406 0 25.960937 11.644531 25.960937 25.957031v116.535156c0 14.3125-11.644531 25.957031-25.960937 25.957031zm-181.777344-152.921875c-5.75 0-10.433594 4.679688-10.433594 10.429688v116.535156c0 5.75 4.683594 10.429687 10.433594 10.429687h181.777344c5.753906 0 10.433593-4.679687 10.433593-10.429687v-116.535156c0-5.75-4.679687-10.429688-10.433593-10.429688zm0 0" fill="#82c6f9" data-original="#82c6f9"></path><path xmlns="http://www.w3.org/2000/svg" d="m142.347656 251.289062h-13.613281c-5.75 0-10.433594-4.679687-10.433594-10.429687v-116.535156c0-5.75 4.679688-10.429688 10.433594-10.429688h14.613281c-.164062-.558593-.371094-1.105469-.660156-1.617187-4.109375-7.324219.222656-13.054688.933594-13.914063h-14.886719c-14.3125 0-25.960937 11.648438-25.960937 25.960938v116.535156c0 14.3125 11.648437 25.957031 25.960937 25.957031h15.246094c-.050781-.0625-.085938-.128906-.136719-.191406-3.863281-4.882812-3.265625-9.273438-2.089844-12.089844.429688-1.035156.617188-2.140625.59375-3.246094zm0 0" fill="#52b0f5" data-original="#52b0f5"></path><path xmlns="http://www.w3.org/2000/svg" d="m310.511719 455.652344h-181.777344c-14.3125 0-25.960937-11.644532-25.960937-25.960938v-116.53125c0-14.316406 11.648437-25.960937 25.960937-25.960937h181.777344c14.316406 0 25.960937 11.644531 25.960937 25.960937v116.53125c0 14.316406-11.644531 25.960938-25.960937 25.960938zm-181.777344-152.925782c-5.75 0-10.433594 4.679688-10.433594 10.433594v116.53125c0 5.753906 4.683594 10.433594 10.433594 10.433594h181.777344c5.753906 0 10.433593-4.679688 10.433593-10.433594v-116.53125c0-5.753906-4.679687-10.433594-10.433593-10.433594zm0 0" fill="#82c6f9" data-original="#82c6f9"></path><g xmlns="http://www.w3.org/2000/svg" fill="#52b0f5"><path d="m142.925781 440.125h-14.191406c-5.75 0-10.429687-4.679688-10.429687-10.433594v-116.53125c0-5.753906 4.679687-10.433594 10.429687-10.433594h14.808594c-.144531-.335937-.332031-.660156-.578125-.941406-5.621094-6.433594-2.011719-11.765625-.09375-13.847656.203125-.222656.371094-.472656.515625-.738281h-14.652344c-14.3125 0-25.960937 11.648437-25.960937 25.960937v116.535156c0 14.3125 11.648437 25.957032 25.960937 25.957032h15.109375c-4.996094-6.480469-3.183594-11.394532-1.523438-13.871094.339844-.503906.539063-1.074219.605469-1.65625zm0 0" fill="#52b0f5" data-original="#52b0f5"></path><path d="m328.042969 63.136719h-16.859375c-4.65625 0-8.429688-3.773438-8.429688-8.429688s3.773438-8.429687 8.429688-8.429687h16.859375c4.65625 0 8.429687 3.773437 8.429687 8.429687s-3.773437 8.429688-8.429687 8.429688zm0 0" fill="#52b0f5" data-original="#52b0f5"></path><path d="m128.066406 63.136719h-16.863281c-4.652344 0-8.429687-3.773438-8.429687-8.429688s3.777343-8.429687 8.429687-8.429687h16.863281c4.65625 0 8.429688 3.773437 8.429688 8.429687s-3.773438 8.429688-8.429688 8.429688zm0 0" fill="#52b0f5" data-original="#52b0f5"></path></g><path xmlns="http://www.w3.org/2000/svg" d="m470.015625 127.683594c-29.109375-50.414063-93.578125-67.6875-143.992187-38.582032-50.417969 29.109376-67.691407 93.578126-38.582032 143.992188 29.109375 50.417969 93.578125 67.691406 143.992188 38.582031 50.414062-29.109375 67.6875-93.574219 38.582031-143.992187zm0 0" fill="#c2edff" data-original="#c2edff"></path><path xmlns="http://www.w3.org/2000/svg" d="m470.015625 127.683594c-29.109375-50.414063-93.578125-67.6875-143.992187-38.582032-50.417969 29.109376-67.691407 93.578126-38.582032 143.992188 29.109375 50.417969 93.578125 67.691406 143.992188 38.582031 50.414062-29.109375 67.6875-93.574219 38.582031-143.992187zm0 0" fill="#c2edff" data-original="#c2edff"></path><path xmlns="http://www.w3.org/2000/svg" d="m470.015625 127.683594c-29.109375-50.414063-93.578125-67.6875-143.992187-38.582032-50.417969 29.109376-67.691407 93.578126-38.582032 143.992188 29.109375 50.417969 93.578125 67.691406 143.992188 38.582031 50.414062-29.109375 67.6875-93.574219 38.582031-143.992187zm0 0" fill="#c2edff" data-original="#c2edff"></path><path xmlns="http://www.w3.org/2000/svg" d="m472.941406 227.699219v-94.59375c-.914062-1.820313-1.882812-3.628907-2.914062-5.417969-29.109375-50.414062-93.578125-67.691406-143.996094-38.582031s-67.691406 93.578125-38.582031 143.996093c4.589843 7.949219 10.0625 15.074219 16.21875 21.328126h150.132812c7.847657-7.949219 14.261719-16.992188 19.140625-26.730469zm0 0" fill="#52b0f5" data-original="#52b0f5"></path><path xmlns="http://www.w3.org/2000/svg" d="m409.238281 185.917969c36.988281 16.398437 55.039063 31.207031 63.703125 40.78125v-70.683594c-22.347656-10.03125-40.011718-22.945313-53.761718-36.132813-7.671876-7.359374-20.019532-7.359374-27.691407 0-10.59375 10.160157-23.539062 20.144532-39.125 28.789063 14.777344 13.851563 33.398438 26.835937 56.875 37.246094zm0 0" fill="#98341a" data-original="#98341a"></path><path xmlns="http://www.w3.org/2000/svg" d="m391.488281 119.882812c-10.59375 10.160157-23.539062 20.144532-39.125 28.789063 14.777344 13.851563 33.398438 26.835937 56.875 37.246094 5.058594 2.242187 9.75 4.453125 14.125 6.628906-25.847656-33.671875-4.183593-72.664063-4.183593-72.664063-7.671876-7.359374-20.019532-7.359374-27.691407 0zm0 0" fill="#872815" data-original="#872815"></path><path xmlns="http://www.w3.org/2000/svg" d="m472.941406 227.699219v-1c-8.660156-9.574219-26.714844-24.382813-63.703125-40.78125-52.011719-23.058594-80.226562-58.734375-95.433593-88.566407-40.804688 31.824219-52.964844 89.65625-26.355469 135.746094 4.589843 7.953125 10.0625 15.078125 16.21875 21.328125h150.132812c7.847657-7.945312 14.261719-16.988281 19.140625-26.726562zm0 0" fill="#aa3d27" data-original="#aa3d27"></path><path xmlns="http://www.w3.org/2000/svg" d="m385.863281 249.4375c-21.351562-10.386719-20.457031-33.953125-19.316406-42.65625.257813-1.96875-.761719-3.871094-2.539063-4.753906-44.4375-21.957032-45.367187-78.78125-44.960937-91.941406.046875-1.628907-.777344-3.152344-2.152344-4.023438-2.996093-1.902344-4.835937-4.128906-5.921875-6.414062-38.519531 32.25-49.507812 88.445312-23.523437 133.449218 4.589843 7.953125 10.066406 15.078125 16.222656 21.328125h84.722656c.003907-.230469.007813-.453125.019531-.667969.097657-1.816406-.910156-3.523437-2.550781-4.320312zm0 0" fill="#98341a" data-original="#98341a"></path><path xmlns="http://www.w3.org/2000/svg" d="m472.941406 227.699219v-27.601563c-14.695312-5.042968-32.175781-1.898437-43.898437 12.597656-2.675781 3.304688-7.71875 3.324219-10.390625.015626-16.015625-19.824219-46.132813-19.832032-62.15625 0-2.667969 3.300781-7.710938 3.300781-10.378906 0-16.011719-19.824219-46.128907-19.832032-62.152344 0-1.234375 1.523437-2.972656 2.335937-4.75 2.453124 2.144531 6.113282 4.878906 12.117188 8.234375 17.933594 4.589843 7.953125 10.0625 15.078125 16.222656 21.328125h150.128906c7.847657-7.945312 14.261719-16.988281 19.140625-26.726562zm0 0" fill="#83d912" data-original="#83d912"></path><path xmlns="http://www.w3.org/2000/svg" d="m385.863281 249.4375c-21.351562-10.386719-20.457031-33.953125-19.316406-42.65625.125-.9375-.050781-1.859375-.453125-2.667969-3.53125 2.257813-6.785156 5.113281-9.597656 8.597657-2.664063 3.300781-7.710938 3.300781-10.375 0-16.015625-19.824219-46.132813-19.832032-62.15625 0-1.230469 1.523437-2.972656 2.335937-4.75 2.453124 2.144531 6.113282 4.878906 12.117188 8.234375 17.933594 4.59375 7.953125 10.066406 15.078125 16.222656 21.328125h84.722656c.003907-.230469.007813-.453125.019531-.667969.097657-1.816406-.910156-3.523437-2.550781-4.320312zm0 0" fill="#5bbf02" data-original="#5bbf02"></path><path xmlns="http://www.w3.org/2000/svg" d="m457.269531 250.742188h-157.054687c32.5625 36.421874 87.242187 46.335937 131.230468 20.941406 9.925782-5.734375 18.566407-12.84375 25.824219-20.941406zm0 0" fill="#5bbf02" data-original="#5bbf02"></path><path xmlns="http://www.w3.org/2000/svg" d="m399.695312 283.707031c-1.011718-3.179687-.71875-6.339843-.21875-8.597656.429688-1.949219-.46875-3.910156-2.167968-4.960937-8.175782-5.054688-9.109375-12.335938-8.894532-16.390626.058594-1.105468-.296874-2.171874-.953124-3.015624h-87.246094c25.050781 28.019531 63.191406 40.328124 99.480468 32.964843zm0 0" fill="#58aa02" data-original="#58aa02"></path><path xmlns="http://www.w3.org/2000/svg" d="m452.542969 319.449219c-3.886719 0-7.664063-2.015625-9.746094-5.621094l-21.085937-36.527344c-3.105469-5.375-1.265626-12.25 4.113281-15.351562 5.375-3.105469 12.25-1.261719 15.351562 4.113281l21.089844 36.523438c3.101563 5.378906 1.261719 12.25-4.113281 15.355468-1.769532 1.023438-3.703125 1.507813-5.609375 1.507813zm0 0" fill="#82c6f9" data-original="#82c6f9"></path><path xmlns="http://www.w3.org/2000/svg" d="m378.933594 297.023438c-40.347656 0-79.636719-20.921876-101.21875-58.304688-32.160156-55.703125-13.007813-127.1875 42.695312-159.347656 55.707032-32.160156 127.191406-13.003906 159.351563 42.699218 15.578125 26.984376 19.714843 58.417969 11.652343 88.515626-8.0625 30.097656-27.367187 55.25-54.351562 70.828124-18.320312 10.578126-38.351562 15.609376-58.128906 15.609376zm-.355469-210.78125c-15.964844 0-32.128906 4.058593-46.925781 12.597656-21.785156 12.578125-37.367188 32.886718-43.875 57.179687-6.511719 24.296875-3.171875 49.675781 9.40625 71.460938 17.421875 30.171875 49.144531 47.0625 81.710937 47.066406 15.96875 0 32.136719-4.058594 46.929688-12.597656 21.785156-12.578125 37.367187-32.886719 43.875-57.183594 6.511719-24.296875 3.171875-49.671875-9.40625-71.457031-17.421875-30.175782-49.144531-47.066406-81.714844-47.066406zm0 0" fill="#d9f5ff" data-original="#d9f5ff"></path><path xmlns="http://www.w3.org/2000/svg" d="m399.476562 275.109375c.214844-.964844.097657-1.933594-.277343-2.792969-6.722657 1.492188-13.53125 2.230469-20.304688 2.230469-32.566406-.003906-64.289062-16.894531-81.710937-47.066406-12.578125-21.785157-15.917969-47.164063-9.410156-71.460938 5.121093-19.101562 15.867187-35.714843 30.804687-48.070312-.371094-.757813-.945313-1.417969-1.683594-1.886719-11.09375-7.042969-6.503906-18.507812-5.304687-21.046875-48.820313 34.316406-64.273438 101.054687-33.875 153.703125 21.582031 37.382812 60.871094 58.304688 101.21875 58.304688 10.078125 0 20.21875-1.316407 30.171875-3.996094-10.835938-4.554688-10.671875-13.199219-9.628907-17.917969zm0 0" fill="#abe4fe" data-original="#abe4fe"></path><path xmlns="http://www.w3.org/2000/svg" d="m485.839844 381.046875c-5.246094 0-10.347656-2.71875-13.15625-7.585937l-33.292969-57.667969c-4.191406-7.257813-1.703125-16.535157 5.554687-20.726563 7.257813-4.191406 16.535157-1.703125 20.726563 5.554688l33.292969 57.664062c4.191406 7.257813 1.703125 16.539063-5.554688 20.726563-2.390625 1.382812-5 2.035156-7.570312 2.035156zm0 0" fill="#d93a59" data-original="#d93a59"></path><path xmlns="http://www.w3.org/2000/svg" d="m485.128906 334.324219-19.457031-33.703125c-4.191406-7.257813-13.46875-9.746094-20.726563-5.554688-7.257812 4.191406-9.746093 13.46875-5.554687 20.730469l19.457031 33.699219c-2.066406-14.578125 14.695313-24.25 26.28125-15.171875zm0 0" fill="#ba1c37" data-original="#ba1c37"></path><path xmlns="http://www.w3.org/2000/svg" d="m109.730469 0c-27.597657 0-50.046875 22.453125-50.046875 50.050781v377.183594c7.699218 8.902344 16.03125 17.238281 24.921875 24.945313v-402.128907c0-13.878906 11.25-25.128906 25.125-25.128906h40.699219s-12.332032-12.589844 0-24.921875zm0 0" fill="#483ba8" data-original="#483ba8"></path></g></svg>